Pilsner-Regular.ufo
<glyph name="exclam" format="1">
  <advance width="225"/>
  <unicode hex="0021"/>
  <outline>
    <contour>
      <point x="164" y="595" type="line"/>
      <point x="155" y="295" type="line"/>
      <point x="137" y="158" type="line"/>
      <point x="89" y="158" type="line"/>
      <point x="70" y="295" type="line"/>
      <point x="61" y="595" type="line"/>
    </contour>
    <contour>
      <point x="170" y="54" type="line"/>
      <point x="167" y="0" type="line"/>
      <point x="58" y="0" type="line"/>
      <point x="55" y="54" type="line"/>
      <point x="58" y="107" type="line"/>
      <point x="167" y="107" type="line"/>
    </contour>
  </outline>
</glyph>
<glyph name="quotedbl" format="1">
  <advance width="394"/>
  <unicode hex="0022"/>
  <outline>
    <contour>
      <point x="341" y="500" type="line"/>
      <point x="317" y="358" type="line"/>
      <point x="262" y="358" type="line"/>
      <point x="239" y="500" type="line"/>
      <point x="245" y="595" type="line"/>
      <point x="334" y="595" type="line"/>
    </contour>
    <contour>
      <point x="156" y="500" type="line"/>
      <point x="132" y="358" type="line"/>
      <point x="78" y="358" type="line"/>
      <point x="54" y="500" type="line"/>
      <point x="60" y="595" type="line"/>
      <point x="149" y="595" type="line"/>
    </contour>
  </outline>
</glyph>
<glyph name="numbersign" format="1">
  <advance width="608"/>
  <unicode hex="0023"/>
  <outline>
    <contour>
      <point x="589" y="374" type="line"/>
      <point x="478" y="369" type="line"/>
      <point x="451" y="282" type="line"/>
      <point x="430" y="228" type="line"/>
      <point x="549" y="223" type="line"/>
      <point x="549" y="158" type="line"/>
      <point x="402" y="151" type="line"/>
      <point x="340" y="-10" type="line"/>
      <point x="291" y="5" type="line"/>
      <point x="335" y="148" type="line"/>
      <point x="254" y="145" type="line"/>
      <point x="170" y="149" type="line"/>
      <point x="110" y="-10" type="line"/>
      <point x="61" y="5" type="line"/>
      <point x="107" y="154" type="line"/>
      <point x="19" y="158" type="line"/>
      <point x="19" y="223" type="line"/>
      <point x="130" y="228" type="line"/>
      <point x="158" y="318" type="line"/>
      <point x="177" y="369" type="line"/>
      <point x="59" y="374" type="line"/>
      <point x="59" y="439" type="line"/>
      <point x="206" y="446" type="line"/>
      <point x="268" y="607" type="line"/>
      <point x="317" y="592" type="line"/>
      <point x="273" y="449" type="line"/>
      <point x="354" y="452" type="line"/>
      <point x="437" y="447" type="line"/>
      <point x="498" y="607" type="line"/>
      <point x="547" y="592" type="line"/>
      <point x="501" y="443" type="line"/>
      <point x="589" y="439" type="line"/>
    </contour>
    <contour>
      <point x="406" y="365" type="line"/>
      <point x="324" y="362" type="line"/>
      <point x="247" y="365" type="line"/>
      <point x="221" y="282" type="line"/>
      <point x="202" y="232" type="line"/>
      <point x="284" y="235" type="line"/>
      <point x="361" y="232" type="line"/>
      <point x="388" y="318" type="line"/>
    </contour>
  </outline>
</glyph>
<glyph name="dollar" format="1">
  <advance width="482"/>
  <unicode hex="0024"/>
  <outline>
    <contour>
      <point x="422" y="505" type="line"/>
      <point x="398" y="423" type="line"/>
      <point x="240" y="475" type="line"/>
      <point x="158" y="445" type="line"/>
      <point x="158" y="376" type="line"/>
      <point x="421" y="275" type="line"/>
      <point x="421" y="113" type="line"/>
      <point x="283" y="62" type="line"/>
      <point x="290" y="-10" type="line"/>
      <point x="190" y="-10" type="line"/>
      <point x="198" y="62" type="line"/>
      <point x="46" y="104" type="line"/>
      <point x="71" y="186" type="line"/>
      <point x="234" y="120" type="line"/>
      <point x="328" y="150" type="line"/>
      <point x="328" y="222" type="line"/>
      <point x="65" y="323" type="line"/>
      <point x="65" y="482" type="line"/>
      <point x="198" y="532" type="line"/>
      <point x="190" y="605" type="line"/>
      <point x="290" y="605" type="line"/>
      <point x="283" y="532" type="line"/>
    </contour>
  </outline>
</glyph>
<glyph name="percent" format="1">
  <advance width="953"/>
  <unicode hex="0025"/>
  <outline>
    <contour>
      <point x="394" y="419" type="line"/>
      <point x="373" y="268" type="line"/>
      <point x="254" y="237" type="line"/>
      <point x="174" y="237" type="line"/>
      <point x="55" y="267" type="line"/>
      <point x="34" y="418" type="line"/>
      <point x="55" y="569" type="line"/>
      <point x="174" y="600" type="line"/>
      <point x="254" y="600" type="line"/>
      <point x="373" y="570" type="line"/>
    </contour>
    <contour>
      <point x="657" y="586" type="line"/>
      <point x="480" y="206" type="line"/>
      <point x="348" y="-9" type="line"/>
      <point x="297" y="9" type="line"/>
      <point x="473" y="389" type="line"/>
      <point x="606" y="604" type="line"/>
    </contour>
    <contour>
      <point x="919" y="177" type="line"/>
      <point x="898" y="26" type="line"/>
      <point x="780" y="-5" type="line"/>
      <point x="700" y="-5" type="line"/>
      <point x="581" y="25" type="line"/>
      <point x="560" y="176" type="line"/>
      <point x="581" y="327" type="line"/>
      <point x="700" y="358" type="line"/>
      <point x="780" y="358" type="line"/>
      <point x="898" y="328" type="line"/>
    </contour>
    <contour>
      <point x="309" y="418" type="line"/>
      <point x="293" y="529" type="line"/>
      <point x="214" y="546" type="line"/>
      <point x="134" y="529" type="line"/>
      <point x="119" y="419" type="line"/>
      <point x="134" y="308" type="line"/>
      <point x="214" y="291" type="line"/>
      <point x="293" y="308" type="line"/>
    </contour>
    <contour>
      <point x="835" y="176" type="line"/>
      <point x="819" y="287" type="line"/>
      <point x="740" y="304" type="line"/>
      <point x="660" y="287" type="line"/>
      <point x="645" y="177" type="line"/>
      <point x="660" y="66" type="line"/>
      <point x="740" y="49" type="line"/>
      <point x="819" y="66" type="line"/>
    </contour>
  </outline>
</glyph>
<glyph name="ampersand" format="1">
  <advance width="533"/>
  <unicode hex="0026"/>
  <outline>
    <contour>
      <point x="513" y="38" type="line"/>
      <point x="440" y="-11" type="line"/>
      <point x="365" y="81" type="line"/>
      <point x="240" y="-2" type="line"/>
      <point x="154" y="-2" type="line"/>
      <point x="46" y="43" type="line"/>
      <point x="23" y="150" type="line"/>
      <point x="50" y="258" type="line"/>
      <point x="175" y="313" type="line"/>
      <point x="114" y="388" type="line"/>
      <point x="108" y="503" type="line"/>
      <point x="161" y="595" type="line"/>
      <point x="405" y="595" type="line"/>
      <point x="390" y="512" type="line"/>
      <point x="205" y="531" type="line"/>
      <point x="185" y="485" type="line"/>
      <point x="185" y="438" type="line"/>
      <point x="373" y="209" type="line"/>
      <point x="420" y="375" type="line"/>
      <point x="511" y="375" type="line"/>
      <point x="417" y="157" type="line"/>
    </contour>
    <contour>
      <point x="329" y="125" type="line"/>
      <point x="210" y="271" type="line"/>
      <point x="131" y="232" type="line"/>
      <point x="114" y="159" type="line"/>
      <point x="128" y="82" type="line"/>
      <point x="209" y="48" type="line"/>
    </contour>
  </outline>
</glyph>
<glyph name="quotesingle" format="1">
  <advance width="209"/>
  <unicode hex="0027"/>
  <outline>
    <contour>
      <point x="156" y="500" type="line"/>
      <point x="132" y="358" type="line"/>
      <point x="78" y="358" type="line"/>
      <point x="54" y="500" type="line"/>
      <point x="60" y="595" type="line"/>
      <point x="149" y="595" type="line"/>
    </contour>
  </outline>
</glyph>
<glyph name="parenleft" format="1">
  <advance width="398"/>
  <unicode hex="0028"/>
  <outline>
    <contour>
      <point x="350" y="-112" type="line"/>
      <point x="322" y="-152" type="line"/>
      <point x="108" y="-41" type="line"/>
      <point x="59" y="227" type="line"/>
      <point x="108" y="496" type="line"/>
      <point x="322" y="607" type="line"/>
      <point x="350" y="567" type="line"/>
      <point x="202" y="467" type="line"/>
      <point x="162" y="227" type="line"/>
      <point x="202" y="-12" type="line"/>
    </contour>
  </outline>
</glyph>
<glyph name="parenright" format="1">
  <advance width="398"/>
  <unicode hex="0029"/>
  <outline>
    <contour>
      <point x="338" y="227" type="line"/>
      <point x="289" y="-41" type="line"/>
      <point x="78" y="-152" type="line"/>
      <point x="48" y="-110" type="line"/>
      <point x="200" y="-8" type="line"/>
      <point x="240" y="227" type="line"/>
      <point x="200" y="463" type="line"/>
      <point x="48" y="565" type="line"/>
      <point x="78" y="607" type="line"/>
      <point x="289" y="496" type="line"/>
    </contour>
  </outline>
</glyph>
<glyph name="asterisk" format="1">
  <advance width="408"/>
  <unicode hex="002A"/>
  <outline>
    <contour>
      <point x="373" y="448" type="line"/>
      <point x="232" y="429" type="line"/>
      <point x="336" y="332" type="line"/>
      <point x="265" y="281" type="line"/>
      <point x="204" y="408" type="line"/>
      <point x="143" y="281" type="line"/>
      <point x="72" y="332" type="line"/>
      <point x="176" y="429" type="line"/>
      <point x="35" y="448" type="line"/>
      <point x="61" y="531" type="line"/>
      <point x="186" y="463" type="line"/>
      <point x="161" y="603" type="line"/>
      <point x="247" y="603" type="line"/>
      <point x="222" y="463" type="line"/>
      <point x="347" y="531" type="line"/>
    </contour>
  </outline>
</glyph>
<glyph name="plus" format="1">
  <advance width="435"/>
  <unicode hex="002B"/>
  <outline>
    <contour>
      <point x="388" y="196" type="line"/>
      <point x="255" y="189" type="line"/>
      <point x="249" y="51" type="line"/>
      <point x="186" y="51" type="line"/>
      <point x="180" y="189" type="line"/>
      <point x="41" y="196" type="line"/>
      <point x="41" y="258" type="line"/>
      <point x="180" y="265" type="line"/>
      <point x="186" y="403" type="line"/>
      <point x="249" y="403" type="line"/>
      <point x="255" y="265" type="line"/>
      <point x="388" y="258" type="line"/>
    </contour>
  </outline>
</glyph>
<glyph name="comma" format="1">
  <advance width="195"/>
  <unicode hex="002C"/>
  <outline>
    <contour>
      <point x="155" y="31" type="line"/>
      <point x="79" y="-88" type="line"/>
      <point x="39" y="-72" type="line"/>
      <point x="55" y="10" type="line"/>
      <point x="45" y="105" type="line"/>
      <point x="152" y="105" type="line"/>
    </contour>
  </outline>
</glyph>
<glyph name="hyphen" format="1">
  <advance width="327"/>
  <unicode hex="002D"/>
  <unicode hex="2010"/>
  <unicode hex="2011"/>
  <outline>
    <contour>
      <point x="290" y="193" type="line"/>
      <point x="163" y="186" type="line"/>
      <point x="37" y="193" type="line"/>
      <point x="37" y="261" type="line"/>
      <point x="163" y="268" type="line"/>
      <point x="290" y="261" type="line"/>
    </contour>
  </outline>
</glyph>
<glyph name="period" format="1">
  <advance width="195"/>
  <unicode hex="002E"/>
  <outline>
    <contour>
      <point x="153" y="52" type="line"/>
      <point x="151" y="0" type="line"/>
      <point x="45" y="0" type="line"/>
      <point x="42" y="52" type="line"/>
      <point x="45" y="105" type="line"/>
      <point x="151" y="105" type="line"/>
    </contour>
  </outline>
</glyph>
<glyph name="slash" format="1">
  <advance width="390"/>
  <unicode hex="002F"/>
  <outline>
    <contour>
      <point x="351" y="587" type="line"/>
      <point x="196" y="136" type="line"/>
      <point x="64" y="-148" type="line"/>
      <point x="3" y="-132" type="line"/>
      <point x="158" y="319" type="line"/>
      <point x="290" y="603" type="line"/>
    </contour>
  </outline>
</glyph>
<glyph name="zero" format="1">
  <advance width="592"/>
  <unicode hex="0030"/>
  <outline>
    <contour>
      <point x="547" y="297" type="line"/>
      <point x="514" y="46" type="line"/>
      <point x="348" y="-5" type="line"/>
      <point x="243" y="-5" type="line"/>
      <point x="77" y="46" type="line"/>
      <point x="45" y="297" type="line"/>
      <point x="77" y="549" type="line"/>
      <point x="243" y="600" type="line"/>
      <point x="348" y="600" type="line"/>
      <point x="514" y="549" type="line"/>
    </contour>
    <contour>
      <point x="451" y="297" type="line"/>
      <point x="425" y="508" type="line"/>
      <point x="296" y="545" type="line"/>
      <point x="166" y="508" type="line"/>
      <point x="140" y="297" type="line"/>
      <point x="166" y="87" type="line"/>
      <point x="295" y="50" type="line"/>
      <point x="425" y="87" type="line"/>
    </contour>
  </outline>
</glyph>
<glyph name="one" format="1">
  <advance width="300"/>
  <unicode hex="0031"/>
  <outline>
    <contour>
      <point x="234" y="0" type="line"/>
      <point x="132" y="0" type="line"/>
      <point x="140" y="296" type="line"/>
      <point x="134" y="522" type="line"/>
      <point x="25" y="504" type="line"/>
      <point x="12" y="553" type="line"/>
      <point x="164" y="597" type="line"/>
      <point x="234" y="597" type="line"/>
      <point x="226" y="296" type="line"/>
    </contour>
  </outline>
</glyph>
<glyph name="two" format="1">
  <advance width="484"/>
  <unicode hex="0032"/>
  <outline>
    <contour>
      <point x="439" y="0" type="line"/>
      <point x="54" y="0" type="line"/>
      <point x="37" y="39" type="line"/>
      <point x="320" y="352" type="line"/>
      <point x="334" y="429" type="line"/>
      <point x="320" y="507" type="line"/>
      <point x="229" y="547" type="line"/>
      <point x="73" y="476" type="line"/>
      <point x="41" y="550" type="line"/>
      <point x="190" y="600" type="line"/>
      <point x="277" y="600" type="line"/>
      <point x="411" y="549" type="line"/>
      <point x="432" y="445" type="line"/>
      <point x="411" y="341" type="line"/>
      <point x="143" y="62" type="line"/>
      <point x="423" y="77" type="line"/>
    </contour>
  </outline>
</glyph>
<glyph name="three" format="1">
  <advance width="494"/>
  <unicode hex="0033"/>
  <outline>
    <contour>
      <point x="450" y="192" type="line"/>
      <point x="420" y="58" type="line"/>
      <point x="263" y="-5" type="line"/>
      <point x="170" y="-5" type="line"/>
      <point x="24" y="40" type="line"/>
      <point x="51" y="114" type="line"/>
      <point x="218" y="47" type="line"/>
      <point x="337" y="98" type="line"/>
      <point x="355" y="184" type="line"/>
      <point x="337" y="272" type="line"/>
      <point x="224" y="292" type="line"/>
      <point x="161" y="284" type="line"/>
      <point x="141" y="309" type="line"/>
      <point x="332" y="535" type="line"/>
      <point x="59" y="516" type="line"/>
      <point x="41" y="595" type="line"/>
      <point x="432" y="595" type="line"/>
      <point x="448" y="548" type="line"/>
      <point x="253" y="353" type="line"/>
      <point x="420" y="326" type="line"/>
    </contour>
  </outline>
</glyph>
<glyph name="four" format="1">
  <advance width="529"/>
  <unicode hex="0034"/>
  <outline>
    <contour>
      <point x="515" y="145" type="line"/>
      <point x="415" y="145" type="line"/>
      <point x="421" y="0" type="line"/>
      <point x="326" y="0" type="line"/>
      <point x="332" y="145" type="line"/>
      <point x="34" y="145" type="line"/>
      <point x="17" y="182" type="line"/>
      <point x="203" y="460" type="line"/>
      <point x="274" y="613" type="line"/>
      <point x="366" y="561" type="line"/>
      <point x="109" y="201" type="line"/>
      <point x="332" y="207" type="line"/>
      <point x="326" y="375" type="line"/>
      <point x="421" y="375" type="line"/>
      <point x="415" y="209" type="line"/>
      <point x="504" y="212" type="line"/>
    </contour>
  </outline>
</glyph>
<glyph name="five" format="1">
  <advance width="497"/>
  <unicode hex="0035"/>
  <outline>
    <contour>
      <point x="459" y="197" type="line"/>
      <point x="429" y="58" type="line"/>
      <point x="268" y="-5" type="line"/>
      <point x="175" y="-5" type="line"/>
      <point x="24" y="40" type="line"/>
      <point x="52" y="116" type="line"/>
      <point x="223" y="47" type="line"/>
      <point x="344" y="96" type="line"/>
      <point x="364" y="190" type="line"/>
      <point x="344" y="283" type="line"/>
      <point x="241" y="318" type="line"/>
      <point x="103" y="266" type="line"/>
      <point x="66" y="284" type="line"/>
      <point x="81" y="595" type="line"/>
      <point x="439" y="595" type="line"/>
      <point x="422" y="517" type="line"/>
      <point x="160" y="536" type="line"/>
      <point x="136" y="336" type="line"/>
      <point x="227" y="379" type="line"/>
      <point x="285" y="379" type="line"/>
      <point x="429" y="336" type="line"/>
    </contour>
  </outline>
</glyph>
<glyph name="six" format="1">
  <advance width="538"/>
  <unicode hex="0036"/>
  <outline>
    <contour>
      <point x="493" y="192" type="line"/>
      <point x="471" y="45" type="line"/>
      <point x="326" y="-5" type="line"/>
      <point x="215" y="-5" type="line"/>
      <point x="75" y="45" type="line"/>
      <point x="45" y="298" type="line"/>
      <point x="75" y="537" type="line"/>
      <point x="234" y="600" type="line"/>
      <point x="332" y="600" type="line"/>
      <point x="474" y="560" type="line"/>
      <point x="446" y="486" type="line"/>
      <point x="280" y="546" type="line"/>
      <point x="161" y="497" type="line"/>
      <point x="140" y="330" type="line"/>
      <point x="254" y="380" type="line"/>
      <point x="329" y="380" type="line"/>
      <point x="471" y="336" type="line"/>
    </contour>
    <contour>
      <point x="402" y="192" type="line"/>
      <point x="383" y="293" type="line"/>
      <point x="280" y="326" type="line"/>
      <point x="138" y="270" type="line"/>
      <point x="161" y="86" type="line"/>
      <point x="268" y="49" type="line"/>
      <point x="383" y="86" type="line"/>
    </contour>
  </outline>
</glyph>
<glyph name="seven" format="1">
  <advance width="454"/>
  <unicode hex="0037"/>
  <outline>
    <contour>
      <point x="428" y="544" type="line"/>
      <point x="173" y="-11" type="line"/>
      <point x="82" y="30" type="line"/>
      <point x="195" y="207" type="line"/>
      <point x="344" y="531" type="line"/>
      <point x="45" y="509" type="line"/>
      <point x="23" y="595" type="line"/>
      <point x="410" y="595" type="line"/>
    </contour>
  </outline>
</glyph>
<glyph name="eight" format="1">
  <advance width="534"/>
  <unicode hex="0038"/>
  <outline>
    <contour>
      <point x="490" y="152" type="line"/>
      <point x="473" y="44" type="line"/>
      <point x="326" y="-5" type="line"/>
      <point x="208" y="-5" type="line"/>
      <point x="61" y="44" type="line"/>
      <point x="44" y="152" type="line"/>
      <point x="71" y="259" type="line"/>
      <point x="190" y="297" type="line"/>
      <point x="86" y="336" type="line"/>
      <point x="59" y="442" type="line"/>
      <point x="76" y="551" type="line"/>
      <point x="213" y="600" type="line"/>
      <point x="321" y="600" type="line"/>
      <point x="458" y="551" type="line"/>
      <point x="475" y="442" type="line"/>
      <point x="448" y="336" type="line"/>
      <point x="344" y="297" type="line"/>
      <point x="463" y="259" type="line"/>
    </contour>
    <contour>
      <point x="379" y="440" type="line"/>
      <point x="367" y="516" type="line"/>
      <point x="267" y="545" type="line"/>
      <point x="167" y="516" type="line"/>
      <point x="155" y="440" type="line"/>
      <point x="169" y="366" type="line"/>
      <point x="267" y="328" type="line"/>
      <point x="365" y="366" type="line"/>
    </contour>
    <contour>
      <point x="395" y="154" type="line"/>
      <point x="380" y="229" type="line"/>
      <point x="267" y="267" type="line"/>
      <point x="154" y="229" type="line"/>
      <point x="139" y="154" type="line"/>
      <point x="152" y="79" type="line"/>
      <point x="267" y="48" type="line"/>
      <point x="382" y="79" type="line"/>
    </contour>
  </outline>
</glyph>
<glyph name="nine" format="1">
  <advance width="538"/>
  <unicode hex="0039"/>
  <outline>
    <contour>
      <point x="494" y="297" type="line"/>
      <point x="464" y="58" type="line"/>
      <point x="304" y="-5" type="line"/>
      <point x="206" y="-5" type="line"/>
      <point x="47" y="35" type="line"/>
      <point x="75" y="109" type="line"/>
      <point x="258" y="49" type="line"/>
      <point x="378" y="98" type="line"/>
      <point x="399" y="271" type="line"/>
      <point x="284" y="219" type="line"/>
      <point x="210" y="219" type="line"/>
      <point x="67" y="263" type="line"/>
      <point x="45" y="405" type="line"/>
      <point x="67" y="550" type="line"/>
      <point x="212" y="600" type="line"/>
      <point x="324" y="600" type="line"/>
      <point x="464" y="550" type="line"/>
    </contour>
    <contour>
      <point x="400" y="330" type="line"/>
      <point x="378" y="509" type="line"/>
      <point x="270" y="546" type="line"/>
      <point x="155" y="509" type="line"/>
      <point x="136" y="405" type="line"/>
      <point x="155" y="306" type="line"/>
      <point x="259" y="273" type="line"/>
    </contour>
  </outline>
</glyph>
<glyph name="colon" format="1">
  <advance width="195"/>
  <unicode hex="003A"/>
  <outline>
    <contour>
      <point x="153" y="323" type="line"/>
      <point x="151" y="270" type="line"/>
      <point x="45" y="270" type="line"/>
      <point x="42" y="323" type="line"/>
      <point x="45" y="375" type="line"/>
      <point x="151" y="375" type="line"/>
    </contour>
    <contour>
      <point x="153" y="52" type="line"/>
      <point x="151" y="0" type="line"/>
      <point x="45" y="0" type="line"/>
      <point x="42" y="52" type="line"/>
      <point x="45" y="105" type="line"/>
      <point x="151" y="105" type="line"/>
    </contour>
  </outline>
</glyph>
<glyph name="semicolon" format="1">
  <advance width="195"/>
  <unicode hex="003B"/>
  <outline>
    <contour>
      <point x="153" y="323" type="line"/>
      <point x="151" y="270" type="line"/>
      <point x="45" y="270" type="line"/>
      <point x="42" y="323" type="line"/>
      <point x="45" y="375" type="line"/>
      <point x="151" y="375" type="line"/>
    </contour>
    <contour>
      <point x="153" y="31" type="line"/>
      <point x="78" y="-88" type="line"/>
      <point x="38" y="-72" type="line"/>
      <point x="54" y="10" type="line"/>
      <point x="44" y="105" type="line"/>
      <point x="151" y="105" type="line"/>
    </contour>
  </outline>
</glyph>
<glyph name="less" format="1">
  <advance width="359"/>
  <unicode hex="003C"/>
  <outline>
    <contour>
      <point x="319" y="40" type="line"/>
      <point x="277" y="6" type="line"/>
      <point x="120" y="150" type="line"/>
      <point x="41" y="199" type="line"/>
      <point x="41" y="255" type="line"/>
      <point x="120" y="305" type="line"/>
      <point x="277" y="448" type="line"/>
      <point x="319" y="414" type="line"/>
      <point x="164" y="226" type="line"/>
    </contour>
  </outline>
</glyph>
<glyph name="equal" format="1">
  <advance width="455"/>
  <unicode hex="003D"/>
  <outline>
    <contour>
      <point x="404" y="269" type="line"/>
      <point x="227" y="261" type="line"/>
      <point x="51" y="269" type="line"/>
      <point x="51" y="333" type="line"/>
      <point x="227" y="341" type="line"/>
      <point x="404" y="333" type="line"/>
    </contour>
    <contour>
      <point x="404" y="121" type="line"/>
      <point x="227" y="113" type="line"/>
      <point x="51" y="121" type="line"/>
      <point x="51" y="185" type="line"/>
      <point x="227" y="193" type="line"/>
      <point x="404" y="185" type="line"/>
    </contour>
  </outline>
</glyph>
<glyph name="greater" format="1">
  <advance width="359"/>
  <unicode hex="003E"/>
  <outline>
    <contour>
      <point x="317" y="199" type="line"/>
      <point x="239" y="150" type="line"/>
      <point x="81" y="6" type="line"/>
      <point x="40" y="40" type="line"/>
      <point x="195" y="226" type="line"/>
      <point x="40" y="414" type="line"/>
      <point x="81" y="448" type="line"/>
      <point x="239" y="305" type="line"/>
      <point x="317" y="255" type="line"/>
    </contour>
  </outline>
</glyph>
<glyph name="question" format="1">
  <advance width="443"/>
  <unicode hex="003F"/>
  <outline>
    <contour>
      <point x="415" y="425" type="line"/>
      <point x="386" y="307" type="line"/>
      <point x="238" y="268" type="line"/>
      <point x="220" y="158" type="line"/>
      <point x="172" y="158" type="line"/>
      <point x="154" y="282" type="line"/>
      <point x="180" y="317" type="line"/>
      <point x="302" y="348" type="line"/>
      <point x="317" y="433" type="line"/>
      <point x="298" y="518" type="line"/>
      <point x="206" y="547" type="line"/>
      <point x="52" y="482" type="line"/>
      <point x="23" y="566" type="line"/>
      <point x="157" y="600" type="line"/>
      <point x="251" y="600" type="line"/>
      <point x="390" y="549" type="line"/>
    </contour>
    <contour>
      <point x="254" y="54" type="line"/>
      <point x="251" y="0" type="line"/>
      <point x="142" y="0" type="line"/>
      <point x="139" y="54" type="line"/>
      <point x="142" y="107" type="line"/>
      <point x="251" y="107" type="line"/>
    </contour>
  </outline>
</glyph>
<glyph name="at" format="1">
  <advance width="709"/>
  <unicode hex="0040"/>
  <outline>
    <contour>
      <point x="668" y="356" type="line"/>
      <point x="633" y="163" type="line"/>
      <point x="441" y="112" type="line"/>
      <point x="399" y="118" type="line"/>
      <point x="397" y="164" type="line"/>
      <point x="245" y="107" type="line"/>
      <point x="181" y="128" type="line"/>
      <point x="193" y="300" type="line"/>
      <point x="235" y="471" type="line"/>
      <point x="315" y="492" type="line"/>
      <point x="458" y="467" type="line"/>
      <point x="489" y="487" type="line"/>
      <point x="519" y="487" type="line"/>
      <point x="482" y="299" type="line"/>
      <point x="465" y="154" type="line"/>
      <point x="599" y="188" type="line"/>
      <point x="629" y="355" type="line"/>
      <point x="599" y="523" type="line"/>
      <point x="418" y="566" type="line"/>
      <point x="291" y="566" type="line"/>
      <point x="111" y="523" type="line"/>
      <point x="80" y="297" type="line"/>
      <point x="111" y="73" type="line"/>
      <point x="291" y="29" type="line"/>
      <point x="418" y="29" type="line"/>
      <point x="626" y="82" type="line"/>
      <point x="636" y="47" type="line"/>
      <point x="423" y="-5" type="line"/>
      <point x="286" y="-5" type="line"/>
      <point x="76" y="46" type="line"/>
      <point x="41" y="297" type="line"/>
      <point x="76" y="549" type="line"/>
      <point x="286" y="600" type="line"/>
      <point x="423" y="600" type="line"/>
      <point x="633" y="549" type="line"/>
    </contour>
    <contour>
      <point x="431" y="426" type="line"/>
      <point x="302" y="433" type="line"/>
      <point x="267" y="300" type="line"/>
      <point x="259" y="163" type="line"/>
      <point x="398" y="214" type="line"/>
    </contour>
  </outline>
</glyph>
<glyph name="A" format="1">
  <advance width="593"/>
  <unicode hex="0041"/>
  <outline>
    <contour>
      <point x="559" y="25" type="line"/>
      <point x="458" y="-11" type="line"/>
      <point x="416" y="125" type="line"/>
      <point x="149" y="125" type="line"/>
      <point x="107" y="-11" type="line"/>
      <point x="34" y="17" type="line"/>
      <point x="150" y="321" type="line"/>
      <point x="244" y="597" type="line"/>
      <point x="345" y="597" type="line"/>
      <point x="438" y="328" type="line"/>
    </contour>
    <contour>
      <point x="397" y="191" type="line"/>
      <point x="284" y="512" type="line"/>
      <point x="170" y="191" type="line"/>
    </contour>
  </outline>
</glyph>
<glyph name="B" format="1">
  <advance width="537"/>
  <unicode hex="0042"/>
  <outline>
    <contour>
      <point x="500" y="157" type="line"/>
      <point x="480" y="53" type="line"/>
      <point x="321" y="0" type="line"/>
      <point x="60" y="0" type="line"/>
      <point x="68" y="297" type="line"/>
      <point x="60" y="595" type="line"/>
      <point x="308" y="595" type="line"/>
      <point x="467" y="542" type="line"/>
      <point x="487" y="437" type="line"/>
      <point x="462" y="342" type="line"/>
      <point x="346" y="297" type="line"/>
      <point x="476" y="253" type="line"/>
    </contour>
    <contour>
      <point x="390" y="435" type="line"/>
      <point x="379" y="502" type="line"/>
      <point x="278" y="534" type="line"/>
      <point x="160" y="534" type="line"/>
      <point x="155" y="330" type="line"/>
      <point x="283" y="330" type="line"/>
      <point x="378" y="369" type="line"/>
    </contour>
    <contour>
      <point x="404" y="159" type="line"/>
      <point x="392" y="223" type="line"/>
      <point x="289" y="266" type="line"/>
      <point x="155" y="266" type="line"/>
      <point x="161" y="61" type="line"/>
      <point x="293" y="61" type="line"/>
      <point x="393" y="93" type="line"/>
    </contour>
  </outline>
</glyph>
<glyph name="C" format="1">
  <advance width="533"/>
  <unicode hex="0043"/>
  <outline>
    <contour>
      <point x="493" y="570" type="line"/>
      <point x="469" y="486" type="line"/>
      <point x="301" y="542" type="line"/>
      <point x="163" y="507" type="line"/>
      <point x="137" y="297" type="line"/>
      <point x="163" y="88" type="line"/>
      <point x="300" y="53" type="line"/>
      <point x="464" y="116" type="line"/>
      <point x="489" y="42" type="line"/>
      <point x="336" y="-5" type="line"/>
      <point x="254" y="-5" type="line"/>
      <point x="74" y="46" type="line"/>
      <point x="43" y="297" type="line"/>
      <point x="74" y="549" type="line"/>
      <point x="254" y="600" type="line"/>
      <point x="342" y="600" type="line"/>
    </contour>
  </outline>
</glyph>
<glyph name="D" format="1">
  <advance width="588"/>
  <unicode hex="0044"/>
  <outline>
    <contour>
      <point x="546" y="297" type="line"/>
      <point x="514" y="51" type="line"/>
      <point x="336" y="0" type="line"/>
      <point x="60" y="0" type="line"/>
      <point x="68" y="297" type="line"/>
      <point x="60" y="595" type="line"/>
      <point x="336" y="595" type="line"/>
      <point x="514" y="544" type="line"/>
    </contour>
    <contour>
      <point x="451" y="297" type="line"/>
      <point x="425" y="502" type="line"/>
      <point x="300" y="531" type="line"/>
      <point x="161" y="531" type="line"/>
      <point x="155" y="297" type="line"/>
      <point x="161" y="64" type="line"/>
      <point x="300" y="64" type="line"/>
      <point x="425" y="93" type="line"/>
    </contour>
  </outline>
</glyph>
<glyph name="E" format="1">
  <advance width="456"/>
  <unicode hex="0045"/>
  <outline>
    <contour>
      <point x="423" y="0" type="line"/>
      <point x="60" y="0" type="line"/>
      <point x="68" y="297" type="line"/>
      <point x="60" y="595" type="line"/>
      <point x="419" y="595" type="line"/>
      <point x="403" y="517" type="line"/>
      <point x="160" y="541" type="line"/>
      <point x="155" y="331" type="line"/>
      <point x="338" y="340" type="line"/>
      <point x="338" y="265" type="line"/>
      <point x="155" y="275" type="line"/>
      <point x="160" y="54" type="line"/>
      <point x="407" y="78" type="line"/>
    </contour>
  </outline>
</glyph>
<glyph name="F" format="1">
  <advance width="435"/>
  <unicode hex="0046"/>
  <outline>
    <contour>
      <point x="411" y="595" type="line"/>
      <point x="395" y="517" type="line"/>
      <point x="160" y="541" type="line"/>
      <point x="155" y="311" type="line"/>
      <point x="330" y="320" type="line"/>
      <point x="330" y="245" type="line"/>
      <point x="155" y="255" type="line"/>
      <point x="161" y="0" type="line"/>
      <point x="60" y="0" type="line"/>
      <point x="68" y="297" type="line"/>
      <point x="60" y="595" type="line"/>
    </contour>
  </outline>
</glyph>
<glyph name="G" format="1">
  <advance width="572"/>
  <unicode hex="0047"/>
  <outline>
    <contour>
      <point x="526" y="45" type="line"/>
      <point x="346" y="-5" type="line"/>
      <point x="259" y="-5" type="line"/>
      <point x="74" y="46" type="line"/>
      <point x="43" y="297" type="line"/>
      <point x="74" y="549" type="line"/>
      <point x="259" y="600" type="line"/>
      <point x="349" y="600" type="line"/>
      <point x="502" y="570" type="line"/>
      <point x="481" y="485" type="line"/>
      <point x="306" y="542" type="line"/>
      <point x="163" y="507" type="line"/>
      <point x="137" y="297" type="line"/>
      <point x="163" y="88" type="line"/>
      <point x="305" y="53" type="line"/>
      <point x="427" y="84" type="line"/>
      <point x="431" y="186" type="line"/>
      <point x="423" y="314" type="line"/>
      <point x="526" y="314" type="line"/>
      <point x="519" y="186" type="line"/>
    </contour>
  </outline>
</glyph>
<glyph name="H" format="1">
  <advance width="605"/>
  <unicode hex="0048"/>
  <outline>
    <contour>
      <point x="546" y="0" type="line"/>
      <point x="443" y="0" type="line"/>
      <point x="450" y="263" type="line"/>
      <point x="156" y="263" type="line"/>
      <point x="163" y="0" type="line"/>
      <point x="60" y="0" type="line"/>
      <point x="68" y="297" type="line"/>
      <point x="60" y="595" type="line"/>
      <point x="163" y="595" type="line"/>
      <point x="156" y="329" type="line"/>
      <point x="450" y="329" type="line"/>
      <point x="443" y="595" type="line"/>
      <point x="546" y="595" type="line"/>
      <point x="538" y="297" type="line"/>
    </contour>
  </outline>
</glyph>
<glyph name="I" format="1">
  <advance width="238"/>
  <unicode hex="0049"/>
  <outline>
    <contour>
      <point x="171" y="0" type="line"/>
      <point x="68" y="0" type="line"/>
      <point x="76" y="297" type="line"/>
      <point x="68" y="595" type="line"/>
      <point x="171" y="595" type="line"/>
      <point x="163" y="297" type="line"/>
    </contour>
  </outline>
</glyph>
<glyph name="J" format="1">
  <advance width="238"/>
  <unicode hex="004A"/>
  <outline>
    <contour>
      <point x="171" y="595" type="line"/>
      <point x="163" y="293" type="line"/>
      <point x="169" y="-115" type="line"/>
      <point x="73" y="-141" type="line"/>
      <point x="-32" y="-129" type="line"/>
      <point x="-32" y="-60" type="line"/>
      <point x="68" y="-76" type="line"/>
      <point x="76" y="293" type="line"/>
      <point x="68" y="595" type="line"/>
    </contour>
  </outline>
</glyph>
<glyph name="K" format="1">
  <advance width="531"/>
  <unicode hex="004B"/>
  <outline>
    <contour>
      <point x="516" y="52" type="line"/>
      <point x="437" y="-13" type="line"/>
      <point x="208" y="278" type="line"/>
      <point x="156" y="229" type="line"/>
      <point x="163" y="0" type="line"/>
      <point x="60" y="0" type="line"/>
      <point x="68" y="297" type="line"/>
      <point x="60" y="595" type="line"/>
      <point x="163" y="595" type="line"/>
      <point x="155" y="297" type="line"/>
      <point x="302" y="448" type="line"/>
      <point x="431" y="608" type="line"/>
      <point x="495" y="551" type="line"/>
      <point x="272" y="339" type="line"/>
    </contour>
  </outline>
</glyph>
<glyph name="L" format="1">
  <advance width="435"/>
  <unicode hex="004C"/>
  <outline>
    <contour>
      <point x="411" y="0" type="line"/>
      <point x="60" y="0" type="line"/>
      <point x="68" y="297" type="line"/>
      <point x="60" y="595" type="line"/>
      <point x="162" y="595" type="line"/>
      <point x="155" y="297" type="line"/>
      <point x="160" y="54" type="line"/>
      <point x="395" y="78" type="line"/>
    </contour>
  </outline>
</glyph>
<glyph name="M" format="1">
  <advance width="705"/>
  <unicode hex="004D"/>
  <outline>
    <contour>
      <point x="646" y="0" type="line"/>
      <point x="544" y="0" type="line"/>
      <point x="554" y="454" type="line"/>
      <point x="382" y="0" type="line"/>
      <point x="316" y="0" type="line"/>
      <point x="125" y="454" type="line"/>
      <point x="140" y="0" type="line"/>
      <point x="60" y="0" type="line"/>
      <point x="68" y="297" type="line"/>
      <point x="60" y="595" type="line"/>
      <point x="167" y="595" type="line"/>
      <point x="258" y="357" type="line"/>
      <point x="364" y="112" type="line"/>
      <point x="453" y="344" type="line"/>
      <point x="538" y="595" type="line"/>
      <point x="646" y="595" type="line"/>
      <point x="638" y="297" type="line"/>
    </contour>
  </outline>
</glyph>
<glyph name="N" format="1">
  <advance width="590"/>
  <unicode hex="004E"/>
  <outline>
    <contour>
      <point x="530" y="0" type="line"/>
      <point x="474" y="0" type="line"/>
      <point x="131" y="448" type="line"/>
      <point x="145" y="0" type="line"/>
      <point x="60" y="0" type="line"/>
      <point x="68" y="297" type="line"/>
      <point x="60" y="595" type="line"/>
      <point x="138" y="595" type="line"/>
      <point x="459" y="172" type="line"/>
      <point x="445" y="595" type="line"/>
      <point x="530" y="595" type="line"/>
      <point x="522" y="297" type="line"/>
    </contour>
  </outline>
</glyph>
<glyph name="O" format="1">
  <advance width="612"/>
  <unicode hex="004F"/>
  <outline>
    <contour>
      <point x="569" y="297" type="line"/>
      <point x="538" y="46" type="line"/>
      <point x="355" y="-5" type="line"/>
      <point x="257" y="-5" type="line"/>
      <point x="74" y="46" type="line"/>
      <point x="43" y="297" type="line"/>
      <point x="74" y="549" type="line"/>
      <point x="257" y="600" type="line"/>
      <point x="355" y="600" type="line"/>
      <point x="538" y="549" type="line"/>
    </contour>
    <contour>
      <point x="475" y="297" type="line"/>
      <point x="448" y="507" type="line"/>
      <point x="306" y="542" type="line"/>
      <point x="163" y="507" type="line"/>
      <point x="137" y="297" type="line"/>
      <point x="163" y="88" type="line"/>
      <point x="306" y="53" type="line"/>
      <point x="448" y="88" type="line"/>
    </contour>
  </outline>
</glyph>
<glyph name="P" format="1">
  <advance width="521"/>
  <unicode hex="0050"/>
  <outline>
    <contour>
      <point x="491" y="407" type="line"/>
      <point x="472" y="271" type="line"/>
      <point x="308" y="219" type="line"/>
      <point x="157" y="219" type="line"/>
      <point x="164" y="0" type="line"/>
      <point x="60" y="0" type="line"/>
      <point x="68" y="297" type="line"/>
      <point x="60" y="595" type="line"/>
      <point x="308" y="595" type="line"/>
      <point x="472" y="543" type="line"/>
    </contour>
    <contour>
      <point x="395" y="407" type="line"/>
      <point x="383" y="500" type="line"/>
      <point x="282" y="531" type="line"/>
      <point x="161" y="531" type="line"/>
      <point x="155" y="283" type="line"/>
      <point x="282" y="283" type="line"/>
      <point x="383" y="314" type="line"/>
    </contour>
  </outline>
</glyph>
<glyph name="Q" format="1">
  <advance width="612"/>
  <unicode hex="0051"/>
  <outline>
    <contour>
      <point x="569" y="297" type="line"/>
      <point x="537" y="46" type="line"/>
      <point x="363" y="-3" type="line"/>
      <point x="394" y="-63" type="line"/>
      <point x="527" y="-63" type="line"/>
      <point x="535" y="-109" type="line"/>
      <point x="379" y="-130" type="line"/>
      <point x="295" y="-94" type="line"/>
      <point x="251" y="-4" type="line"/>
      <point x="74" y="46" type="line"/>
      <point x="43" y="297" type="line"/>
      <point x="74" y="549" type="line"/>
      <point x="257" y="600" type="line"/>
      <point x="355" y="600" type="line"/>
      <point x="537" y="549" type="line"/>
    </contour>
    <contour>
      <point x="474" y="297" type="line"/>
      <point x="448" y="507" type="line"/>
      <point x="306" y="542" type="line"/>
      <point x="163" y="507" type="line"/>
      <point x="137" y="297" type="line"/>
      <point x="163" y="88" type="line"/>
      <point x="305" y="53" type="line"/>
      <point x="448" y="88" type="line"/>
    </contour>
  </outline>
</glyph>
<glyph name="R" format="1">
  <advance width="546"/>
  <unicode hex="0052"/>
  <outline>
    <contour>
      <point x="524" y="45" type="line"/>
      <point x="450" y="-14" type="line"/>
      <point x="211" y="241" type="line"/>
      <point x="157" y="241" type="line"/>
      <point x="164" y="0" type="line"/>
      <point x="60" y="0" type="line"/>
      <point x="68" y="297" type="line"/>
      <point x="60" y="595" type="line"/>
      <point x="308" y="595" type="line"/>
      <point x="472" y="546" type="line"/>
      <point x="491" y="417" type="line"/>
      <point x="472" y="289" type="line"/>
      <point x="320" y="245" type="line"/>
    </contour>
    <contour>
      <point x="395" y="416" type="line"/>
      <point x="383" y="503" type="line"/>
      <point x="282" y="531" type="line"/>
      <point x="161" y="531" type="line"/>
      <point x="155" y="302" type="line"/>
      <point x="282" y="302" type="line"/>
      <point x="383" y="330" type="line"/>
    </contour>
  </outline>
</glyph>
<glyph name="S" format="1">
  <advance width="457"/>
  <unicode hex="0053"/>
  <outline>
    <contour>
      <point x="404" y="575" type="line"/>
      <point x="381" y="493" type="line"/>
      <point x="227" y="545" type="line"/>
      <point x="147" y="517" type="line"/>
      <point x="147" y="415" type="line"/>
      <point x="403" y="235" type="line"/>
      <point x="403" y="43" type="line"/>
      <point x="275" y="-5" type="line"/>
      <point x="180" y="-5" type="line"/>
      <point x="38" y="36" type="line"/>
      <point x="63" y="115" type="line"/>
      <point x="221" y="50" type="line"/>
      <point x="313" y="78" type="line"/>
      <point x="313" y="184" type="line"/>
      <point x="57" y="363" type="line"/>
      <point x="57" y="552" type="line"/>
      <point x="182" y="600" type="line"/>
      <point x="273" y="600" type="line"/>
    </contour>
  </outline>
</glyph>
<glyph name="T" format="1">
  <advance width="510"/>
  <unicode hex="0054"/>
  <outline>
    <contour>
      <point x="491" y="595" type="line"/>
      <point x="474" y="517" type="line"/>
      <point x="305" y="540" type="line"/>
      <point x="298" y="297" type="line"/>
      <point x="307" y="0" type="line"/>
      <point x="203" y="0" type="line"/>
      <point x="211" y="297" type="line"/>
      <point x="205" y="540" type="line"/>
      <point x="36" y="517" type="line"/>
      <point x="19" y="595" type="line"/>
    </contour>
  </outline>
</glyph>
<glyph name="U" format="1">
  <advance width="592"/>
  <unicode hex="0055"/>
  <outline>
    <contour>
      <point x="532" y="47" type="line"/>
      <point x="348" y="-5" type="line"/>
      <point x="245" y="-5" type="line"/>
      <point x="60" y="47" type="line"/>
      <point x="68" y="297" type="line"/>
      <point x="60" y="595" type="line"/>
      <point x="163" y="595" type="line"/>
      <point x="155" y="297" type="line"/>
      <point x="160" y="86" type="line"/>
      <point x="296" y="55" type="line"/>
      <point x="433" y="86" type="line"/>
      <point x="438" y="297" type="line"/>
      <point x="429" y="595" type="line"/>
      <point x="532" y="595" type="line"/>
      <point x="525" y="297" type="line"/>
    </contour>
  </outline>
</glyph>
<glyph name="V" format="1">
  <advance width="593"/>
  <unicode hex="0056"/>
  <outline>
    <contour>
      <point x="559" y="578" type="line"/>
      <point x="443" y="274" type="line"/>
      <point x="349" y="-2" type="line"/>
      <point x="249" y="-2" type="line"/>
      <point x="155" y="267" type="line"/>
      <point x="34" y="570" type="line"/>
      <point x="135" y="606" type="line"/>
      <point x="205" y="378" type="line"/>
      <point x="309" y="83" type="line"/>
      <point x="412" y="377" type="line"/>
      <point x="484" y="606" type="line"/>
    </contour>
  </outline>
</glyph>
<glyph name="W" format="1">
  <advance width="865"/>
  <unicode hex="0057"/>
  <outline>
    <contour>
      <point x="831" y="578" type="line"/>
      <point x="720" y="274" type="line"/>
      <point x="631" y="-2" type="line"/>
      <point x="531" y="-2" type="line"/>
      <point x="433" y="290" type="line"/>
      <point x="338" y="-2" type="line"/>
      <point x="238" y="-2" type="line"/>
      <point x="150" y="267" type="line"/>
      <point x="34" y="570" type="line"/>
      <point x="135" y="606" type="line"/>
      <point x="200" y="378" type="line"/>
      <point x="300" y="83" type="line"/>
      <point x="399" y="379" type="line"/>
      <point x="324" y="570" type="line"/>
      <point x="427" y="606" type="line"/>
      <point x="495" y="378" type="line"/>
      <point x="592" y="83" type="line"/>
      <point x="691" y="377" type="line"/>
      <point x="757" y="606" type="line"/>
    </contour>
  </outline>
</glyph>
<glyph name="X" format="1">
  <advance width="550"/>
  <unicode hex="0058"/>
  <outline>
    <contour>
      <point x="522" y="50" type="line"/>
      <point x="435" y="-11" type="line"/>
      <point x="268" y="246" type="line"/>
      <point x="92" y="-11" type="line"/>
      <point x="29" y="29" type="line"/>
      <point x="232" y="299" type="line"/>
      <point x="46" y="545" type="line"/>
      <point x="133" y="606" type="line"/>
      <point x="284" y="371" type="line"/>
      <point x="444" y="606" type="line"/>
      <point x="507" y="566" type="line"/>
      <point x="321" y="320" type="line"/>
    </contour>
  </outline>
</glyph>
<glyph name="Y" format="1">
  <advance width="557"/>
  <unicode hex="0059"/>
  <outline>
    <contour>
      <point x="540" y="567" type="line"/>
      <point x="327" y="245" type="line"/>
      <point x="334" y="0" type="line"/>
      <point x="231" y="0" type="line"/>
      <point x="237" y="239" type="line"/>
      <point x="18" y="550" type="line"/>
      <point x="102" y="606" type="line"/>
      <point x="180" y="476" type="line"/>
      <point x="296" y="308" type="line"/>
      <point x="407" y="482" type="line"/>
      <point x="474" y="606" type="line"/>
    </contour>
  </outline>
</glyph>
<glyph name="Z" format="1">
  <advance width="500"/>
  <unicode hex="005A"/>
  <outline>
    <contour>
      <point x="458" y="0" type="line"/>
      <point x="50" y="0" type="line"/>
      <point x="37" y="39" type="line"/>
      <point x="344" y="542" type="line"/>
      <point x="77" y="517" type="line"/>
      <point x="62" y="595" type="line"/>
      <point x="445" y="595" type="line"/>
      <point x="458" y="551" type="line"/>
      <point x="144" y="52" type="line"/>
      <point x="443" y="78" type="line"/>
    </contour>
  </outline>
</glyph>
<glyph name="bracketleft" format="1">
  <advance width="379"/>
  <unicode hex="005B"/>
  <outline>
    <contour>
      <point x="346" y="-140" type="line"/>
      <point x="64" y="-140" type="line"/>
      <point x="72" y="227" type="line"/>
      <point x="64" y="595" type="line"/>
      <point x="344" y="595" type="line"/>
      <point x="330" y="527" type="line"/>
      <point x="164" y="540" type="line"/>
      <point x="158" y="227" type="line"/>
      <point x="164" y="-85" type="line"/>
      <point x="332" y="-72" type="line"/>
    </contour>
  </outline>
</glyph>
<glyph name="backslash" format="1">
  <advance width="390"/>
  <unicode hex="005C"/>
  <outline>
    <contour>
      <point x="387" y="-132" type="line"/>
      <point x="326" y="-148" type="line"/>
      <point x="194" y="136" type="line"/>
      <point x="39" y="587" type="line"/>
      <point x="100" y="603" type="line"/>
      <point x="232" y="319" type="line"/>
    </contour>
  </outline>
</glyph>
<glyph name="bracketright" format="1">
  <advance width="379"/>
  <unicode hex="005D"/>
  <outline>
    <contour>
      <point x="315" y="-140" type="line"/>
      <point x="33" y="-140" type="line"/>
      <point x="47" y="-72" type="line"/>
      <point x="215" y="-85" type="line"/>
      <point x="221" y="227" type="line"/>
      <point x="215" y="540" type="line"/>
      <point x="49" y="527" type="line"/>
      <point x="35" y="595" type="line"/>
      <point x="315" y="595" type="line"/>
      <point x="307" y="227" type="line"/>
    </contour>
  </outline>
</glyph>
<glyph name="asciicircum" format="1">
  <advance width="455"/>
  <unicode hex="005E"/>
  <outline>
    <contour>
      <point x="395" y="455" type="line"/>
      <point x="366" y="414" type="line"/>
      <point x="227" y="481" type="line"/>
      <point x="89" y="414" type="line"/>
      <point x="60" y="455" type="line"/>
      <point x="151" y="529" type="line"/>
      <point x="195" y="595" type="line"/>
      <point x="260" y="595" type="line"/>
      <point x="304" y="529" type="line"/>
    </contour>
  </outline>
</glyph>
<glyph name="grave" format="1">
  <advance width="438"/>
  <unicode hex="0060"/>
  <outline>
    <contour>
      <point x="314" y="436" type="line"/>
      <point x="301" y="404" type="line"/>
      <point x="166" y="438" type="line"/>
      <point x="116" y="483" type="line"/>
      <point x="185" y="541" type="line"/>
      <point x="241" y="481" type="line"/>
    </contour>
  </outline>
</glyph>
<glyph name="a" format="1">
  <advance width="419"/>
  <unicode hex="0061"/>
  <outline>
    <contour>
      <point x="368" y="0" type="line"/>
      <point x="265" y="0" type="line"/>
      <point x="266" y="30" type="line"/>
      <point x="171" y="-5" type="line"/>
      <point x="51" y="25" type="line"/>
      <point x="36" y="117" type="line"/>
      <point x="51" y="211" type="line"/>
      <point x="186" y="240" type="line"/>
      <point x="273" y="214" type="line"/>
      <point x="271" y="303" type="line"/>
      <point x="232" y="327" type="line"/>
      <point x="188" y="327" type="line"/>
      <point x="67" y="295" type="line"/>
      <point x="54" y="359" type="line"/>
      <point x="163" y="377" type="line"/>
      <point x="271" y="377" type="line"/>
      <point x="367" y="338" type="line"/>
      <point x="361" y="185" type="line"/>
    </contour>
    <contour>
      <point x="272" y="167" type="line"/>
      <point x="197" y="186" type="line"/>
      <point x="133" y="171" type="line"/>
      <point x="126" y="118" type="line"/>
      <point x="133" y="66" type="line"/>
      <point x="194" y="54" type="line"/>
      <point x="269" y="77" type="line"/>
    </contour>
  </outline>
</glyph>
<glyph name="b" format="1">
  <advance width="432"/>
  <unicode hex="0062"/>
  <outline>
    <contour>
      <point x="386" y="188" type="line"/>
      <point x="371" y="13" type="line"/>
      <point x="255" y="-5" type="line"/>
      <point x="149" y="31" type="line"/>
      <point x="150" y="0" type="line"/>
      <point x="50" y="0" type="line"/>
      <point x="59" y="354" type="line"/>
      <point x="50" y="750" type="line"/>
      <point x="152" y="750" type="line"/>
      <point x="143" y="362" type="line"/>
      <point x="143" y="343" type="line"/>
      <point x="256" y="380" type="line"/>
      <point x="371" y="362" type="line"/>
    </contour>
    <contour>
      <point x="295" y="187" type="line"/>
      <point x="284" y="310" type="line"/>
      <point x="230" y="319" type="line"/>
      <point x="144" y="295" type="line"/>
      <point x="148" y="79" type="line"/>
      <point x="230" y="56" type="line"/>
      <point x="284" y="65" type="line"/>
    </contour>
  </outline>
</glyph>
<glyph name="c" format="1">
  <advance width="363"/>
  <unicode hex="0063"/>
  <outline>
    <contour>
      <point x="329" y="12" type="line"/>
      <point x="247" y="-5" type="line"/>
      <point x="172" y="-5" type="line"/>
      <point x="58" y="20" type="line"/>
      <point x="43" y="188" type="line"/>
      <point x="58" y="355" type="line"/>
      <point x="172" y="380" type="line"/>
      <point x="247" y="380" type="line"/>
      <point x="328" y="369" type="line"/>
      <point x="314" y="299" type="line"/>
      <point x="210" y="331" type="line"/>
      <point x="146" y="319" type="line"/>
      <point x="134" y="188" type="line"/>
      <point x="146" y="57" type="line"/>
      <point x="210" y="44" type="line"/>
      <point x="315" y="71" type="line"/>
    </contour>
  </outline>
</glyph>
<glyph name="d" format="1">
  <advance width="432"/>
  <unicode hex="0064"/>
  <outline>
    <contour>
      <point x="381" y="0" type="line"/>
      <point x="281" y="0" type="line"/>
      <point x="282" y="31" type="line"/>
      <point x="175" y="-5" type="line"/>
      <point x="59" y="13" type="line"/>
      <point x="44" y="188" type="line"/>
      <point x="59" y="362" type="line"/>
      <point x="175" y="380" type="line"/>
      <point x="288" y="343" type="line"/>
      <point x="288" y="362" type="line"/>
      <point x="279" y="750" type="line"/>
      <point x="381" y="750" type="line"/>
      <point x="372" y="354" type="line"/>
    </contour>
    <contour>
      <point x="287" y="295" type="line"/>
      <point x="201" y="319" type="line"/>
      <point x="146" y="310" type="line"/>
      <point x="135" y="188" type="line"/>
      <point x="146" y="65" type="line"/>
      <point x="201" y="56" type="line"/>
      <point x="283" y="79" type="line"/>
    </contour>
  </outline>
</glyph>
<glyph name="e" format="1">
  <advance width="385"/>
  <unicode hex="0065"/>
  <outline>
    <contour>
      <point x="349" y="203" type="line"/>
      <point x="137" y="149" type="line"/>
      <point x="145" y="56" type="line"/>
      <point x="212" y="43" type="line"/>
      <point x="330" y="71" type="line"/>
      <point x="344" y="11" type="line"/>
      <point x="253" y="-5" type="line"/>
      <point x="172" y="-5" type="line"/>
      <point x="58" y="20" type="line"/>
      <point x="43" y="188" type="line"/>
      <point x="58" y="355" type="line"/>
      <point x="172" y="380" type="line"/>
      <point x="231" y="380" type="line"/>
      <point x="336" y="356" type="line"/>
    </contour>
    <contour>
      <point x="257" y="226" type="line"/>
      <point x="250" y="321" type="line"/>
      <point x="199" y="332" type="line"/>
      <point x="144" y="319" type="line"/>
      <point x="134" y="195" type="line"/>
    </contour>
  </outline>
</glyph>
<glyph name="f" format="1">
  <advance width="236"/>
  <unicode hex="0066"/>
  <outline>
    <contour>
      <point x="247" y="682" type="line"/>
      <point x="155" y="695" type="line"/>
      <point x="149" y="380" type="line"/>
      <point x="221" y="374" type="line"/>
      <point x="221" y="326" type="line"/>
      <point x="150" y="321" type="line"/>
      <point x="156" y="0" type="line"/>
      <point x="57" y="0" type="line"/>
      <point x="64" y="322" type="line"/>
      <point x="32" y="326" type="line"/>
      <point x="32" y="374" type="line"/>
      <point x="64" y="378" type="line"/>
      <point x="57" y="730" type="line"/>
      <point x="165" y="750" type="line"/>
      <point x="247" y="744" type="line"/>
    </contour>
  </outline>
</glyph>
<glyph name="g" format="1">
  <advance width="419"/>
  <unicode hex="0067"/>
  <outline>
    <contour>
      <point x="394" y="456" type="line"/>
      <point x="320" y="360" type="line"/>
      <point x="358" y="351" type="line"/>
      <point x="373" y="238" type="line"/>
      <point x="358" y="124" type="line"/>
      <point x="240" y="95" type="line"/>
      <point x="187" y="95" type="line"/>
      <point x="165" y="63" type="line"/>
      <point x="366" y="24" type="line"/>
      <point x="377" y="-43" type="line"/>
      <point x="365" y="-112" type="line"/>
      <point x="238" y="-140" type="line"/>
      <point x="148" y="-140" type="line"/>
      <point x="29" y="-122" type="line"/>
      <point x="40" y="-53" type="line"/>
      <point x="184" y="-90" type="line"/>
      <point x="274" y="-77" type="line"/>
      <point x="282" y="-46" type="line"/>
      <point x="275" y="-17" type="line"/>
      <point x="90" y="19" type="line"/>
      <point x="90" y="61" type="line"/>
      <point x="124" y="106" type="line"/>
      <point x="53" y="124" type="line"/>
      <point x="38" y="238" type="line"/>
      <point x="53" y="351" type="line"/>
      <point x="171" y="380" type="line"/>
      <point x="240" y="380" type="line"/>
      <point x="263" y="374" type="line"/>
      <point x="328" y="493" type="line"/>
    </contour>
    <contour>
      <point x="287" y="238" type="line"/>
      <point x="278" y="319" type="line"/>
      <point x="206" y="332" type="line"/>
      <point x="134" y="319" type="line"/>
      <point x="124" y="238" type="line"/>
      <point x="133" y="157" type="line"/>
      <point x="206" y="143" type="line"/>
      <point x="277" y="157" type="line"/>
    </contour>
  </outline>
</glyph>
<glyph name="h" format="1">
  <advance width="436"/>
  <unicode hex="0068"/>
  <outline>
    <contour>
      <point x="387" y="0" type="line"/>
      <point x="284" y="0" type="line"/>
      <point x="292" y="188" type="line"/>
      <point x="287" y="310" type="line"/>
      <point x="229" y="319" type="line"/>
      <point x="144" y="295" type="line"/>
      <point x="151" y="0" type="line"/>
      <point x="50" y="0" type="line"/>
      <point x="59" y="354" type="line"/>
      <point x="50" y="750" type="line"/>
      <point x="152" y="750" type="line"/>
      <point x="143" y="362" type="line"/>
      <point x="143" y="343" type="line"/>
      <point x="255" y="380" type="line"/>
      <point x="386" y="361" type="line"/>
      <point x="379" y="187" type="line"/>
    </contour>
  </outline>
</glyph>
<glyph name="i" format="1">
  <advance width="215"/>
  <unicode hex="0069"/>
  <outline>
    <contour>
      <point x="160" y="551" type="line"/>
      <point x="156" y="499" type="line"/>
      <point x="61" y="499" type="line"/>
      <point x="57" y="551" type="line"/>
      <point x="61" y="603" type="line"/>
      <point x="156" y="603" type="line"/>
    </contour>
    <contour>
      <point x="160" y="0" type="line"/>
      <point x="57" y="0" type="line"/>
      <point x="65" y="187" type="line"/>
      <point x="57" y="375" type="line"/>
      <point x="160" y="375" type="line"/>
      <point x="152" y="187" type="line"/>
    </contour>
  </outline>
</glyph>
<glyph name="j" format="1">
  <advance width="215"/>
  <unicode hex="006A"/>
  <outline>
    <contour>
      <point x="160" y="551" type="line"/>
      <point x="156" y="499" type="line"/>
      <point x="61" y="499" type="line"/>
      <point x="57" y="551" type="line"/>
      <point x="61" y="603" type="line"/>
      <point x="156" y="603" type="line"/>
    </contour>
    <contour>
      <point x="160" y="-121" type="line"/>
      <point x="51" y="-141" type="line"/>
      <point x="-22" y="-135" type="line"/>
      <point x="-22" y="-73" type="line"/>
      <point x="61" y="-86" type="line"/>
      <point x="66" y="149" type="line"/>
      <point x="57" y="375" type="line"/>
      <point x="160" y="375" type="line"/>
      <point x="151" y="149" type="line"/>
    </contour>
  </outline>
</glyph>
<glyph name="k" format="1">
  <advance width="398"/>
  <unicode hex="006B"/>
  <outline>
    <contour>
      <point x="392" y="48" type="line"/>
      <point x="318" y="-13" type="line"/>
      <point x="180" y="149" type="line"/>
      <point x="148" y="114" type="line"/>
      <point x="152" y="0" type="line"/>
      <point x="50" y="0" type="line"/>
      <point x="59" y="354" type="line"/>
      <point x="50" y="750" type="line"/>
      <point x="154" y="750" type="line"/>
      <point x="143" y="354" type="line"/>
      <point x="147" y="186" type="line"/>
      <point x="232" y="290" type="line"/>
      <point x="297" y="387" type="line"/>
      <point x="356" y="346" type="line"/>
      <point x="236" y="212" type="line"/>
    </contour>
  </outline>
</glyph>
<glyph name="l" format="1">
  <advance width="214"/>
  <unicode hex="006C"/>
  <outline>
    <contour>
      <point x="158" y="0" type="line"/>
      <point x="56" y="0" type="line"/>
      <point x="65" y="354" type="line"/>
      <point x="56" y="750" type="line"/>
      <point x="158" y="750" type="line"/>
      <point x="149" y="354" type="line"/>
    </contour>
  </outline>
</glyph>
<glyph name="m" format="1">
  <advance width="662"/>
  <unicode hex="006D"/>
  <outline>
    <contour>
      <point x="612" y="0" type="line"/>
      <point x="510" y="0" type="line"/>
      <point x="518" y="188" type="line"/>
      <point x="513" y="310" type="line"/>
      <point x="455" y="319" type="line"/>
      <point x="379" y="297" type="line"/>
      <point x="375" y="188" type="line"/>
      <point x="383" y="0" type="line"/>
      <point x="280" y="0" type="line"/>
      <point x="288" y="188" type="line"/>
      <point x="283" y="310" type="line"/>
      <point x="225" y="319" type="line"/>
      <point x="150" y="297" type="line"/>
      <point x="146" y="188" type="line"/>
      <point x="154" y="0" type="line"/>
      <point x="51" y="0" type="line"/>
      <point x="59" y="188" type="line"/>
      <point x="51" y="375" type="line"/>
      <point x="154" y="375" type="line"/>
      <point x="153" y="345" type="line"/>
      <point x="251" y="380" type="line"/>
      <point x="377" y="364" type="line"/>
      <point x="382" y="345" type="line"/>
      <point x="481" y="380" type="line"/>
      <point x="611" y="361" type="line"/>
      <point x="604" y="188" type="line"/>
    </contour>
  </outline>
</glyph>
<glyph name="n" format="1">
  <advance width="437"/>
  <unicode hex="006E"/>
  <outline>
    <contour>
      <point x="388" y="0" type="line"/>
      <point x="285" y="0" type="line"/>
      <point x="293" y="188" type="line"/>
      <point x="288" y="310" type="line"/>
      <point x="230" y="319" type="line"/>
      <point x="150" y="297" type="line"/>
      <point x="146" y="188" type="line"/>
      <point x="154" y="0" type="line"/>
      <point x="51" y="0" type="line"/>
      <point x="59" y="188" type="line"/>
      <point x="51" y="375" type="line"/>
      <point x="154" y="375" type="line"/>
      <point x="153" y="345" type="line"/>
      <point x="256" y="380" type="line"/>
      <point x="387" y="361" type="line"/>
      <point x="380" y="188" type="line"/>
    </contour>
  </outline>
</glyph>
<glyph name="o" format="1">
  <advance width="430"/>
  <unicode hex="006F"/>
  <outline>
    <contour>
      <point x="387" y="188" type="line"/>
      <point x="372" y="20" type="line"/>
      <point x="252" y="-5" type="line"/>
      <point x="177" y="-5" type="line"/>
      <point x="58" y="20" type="line"/>
      <point x="43" y="188" type="line"/>
      <point x="58" y="355" type="line"/>
      <point x="177" y="380" type="line"/>
      <point x="252" y="380" type="line"/>
      <point x="372" y="355" type="line"/>
    </contour>
    <contour>
      <point x="296" y="188" type="line"/>
      <point x="284" y="318" type="line"/>
      <point x="216" y="331" type="line"/>
      <point x="146" y="318" type="line"/>
      <point x="134" y="188" type="line"/>
      <point x="146" y="58" type="line"/>
      <point x="215" y="44" type="line"/>
      <point x="284" y="58" type="line"/>
    </contour>
  </outline>
</glyph>
<glyph name="p" format="1">
  <advance width="432"/>
  <unicode hex="0070"/>
  <outline>
    <contour>
      <point x="388" y="188" type="line"/>
      <point x="373" y="13" type="line"/>
      <point x="257" y="-5" type="line"/>
      <point x="148" y="32" type="line"/>
      <point x="154" y="-140" type="line"/>
      <point x="52" y="-140" type="line"/>
      <point x="59" y="118" type="line"/>
      <point x="52" y="375" type="line"/>
      <point x="152" y="375" type="line"/>
      <point x="151" y="344" type="line"/>
      <point x="258" y="380" type="line"/>
      <point x="373" y="362" type="line"/>
    </contour>
    <contour>
      <point x="297" y="188" type="line"/>
      <point x="286" y="310" type="line"/>
      <point x="232" y="319" type="line"/>
      <point x="149" y="296" type="line"/>
      <point x="145" y="118" type="line"/>
      <point x="146" y="79" type="line"/>
      <point x="232" y="56" type="line"/>
      <point x="286" y="65" type="line"/>
    </contour>
  </outline>
</glyph>
<glyph name="q" format="1">
  <advance width="432"/>
  <unicode hex="0071"/>
  <outline>
    <contour>
      <point x="380" y="-140" type="line"/>
      <point x="278" y="-140" type="line"/>
      <point x="284" y="32" type="line"/>
      <point x="175" y="-5" type="line"/>
      <point x="59" y="13" type="line"/>
      <point x="44" y="188" type="line"/>
      <point x="59" y="362" type="line"/>
      <point x="174" y="380" type="line"/>
      <point x="281" y="344" type="line"/>
      <point x="280" y="375" type="line"/>
      <point x="380" y="375" type="line"/>
      <point x="373" y="118" type="line"/>
    </contour>
    <contour>
      <point x="287" y="118" type="line"/>
      <point x="283" y="296" type="line"/>
      <point x="200" y="319" type="line"/>
      <point x="146" y="310" type="line"/>
      <point x="135" y="188" type="line"/>
      <point x="146" y="65" type="line"/>
      <point x="200" y="56" type="line"/>
      <point x="286" y="79" type="line"/>
    </contour>
  </outline>
</glyph>
<glyph name="r" format="1">
  <advance width="309"/>
  <unicode hex="0072"/>
  <outline>
    <contour>
      <point x="292" y="376" type="line"/>
      <point x="279" y="298" type="line"/>
      <point x="205" y="315" type="line"/>
      <point x="150" y="297" type="line"/>
      <point x="146" y="188" type="line"/>
      <point x="154" y="0" type="line"/>
      <point x="51" y="0" type="line"/>
      <point x="59" y="188" type="line"/>
      <point x="51" y="375" type="line"/>
      <point x="154" y="375" type="line"/>
      <point x="153" y="345" type="line"/>
      <point x="235" y="380" type="line"/>
    </contour>
  </outline>
</glyph>
<glyph name="s" format="1">
  <advance width="354"/>
  <unicode hex="0073"/>
  <outline>
    <contour>
      <point x="312" y="26" type="line"/>
      <point x="213" y="-5" type="line"/>
      <point x="138" y="-5" type="line"/>
      <point x="34" y="15" type="line"/>
      <point x="51" y="79" type="line"/>
      <point x="161" y="43" type="line"/>
      <point x="223" y="59" type="line"/>
      <point x="223" y="117" type="line"/>
      <point x="47" y="218" type="line"/>
      <point x="47" y="349" type="line"/>
      <point x="144" y="380" type="line"/>
      <point x="215" y="380" type="line"/>
      <point x="311" y="369" type="line"/>
      <point x="297" y="302" type="line"/>
      <point x="190" y="332" type="line"/>
      <point x="133" y="316" type="line"/>
      <point x="133" y="259" type="line"/>
      <point x="312" y="158" type="line"/>
    </contour>
  </outline>
</glyph>
<glyph name="t" format="1">
  <advance width="269"/>
  <unicode hex="0074"/>
  <outline>
    <contour>
      <point x="242" y="0" type="line"/>
      <point x="166" y="-5" type="line"/>
      <point x="58" y="15" type="line"/>
      <point x="65" y="322" type="line"/>
      <point x="31" y="326" type="line"/>
      <point x="31" y="374" type="line"/>
      <point x="64" y="378" type="line"/>
      <point x="57" y="550" type="line"/>
      <point x="158" y="550" type="line"/>
      <point x="151" y="379" type="line"/>
      <point x="221" y="374" type="line"/>
      <point x="221" y="326" type="line"/>
      <point x="150" y="320" type="line"/>
      <point x="154" y="50" type="line"/>
      <point x="242" y="62" type="line"/>
    </contour>
  </outline>
</glyph>
<glyph name="u" format="1">
  <advance width="437"/>
  <unicode hex="0075"/>
  <outline>
    <contour>
      <point x="386" y="0" type="line"/>
      <point x="283" y="0" type="line"/>
      <point x="284" y="30" type="line"/>
      <point x="181" y="-5" type="line"/>
      <point x="51" y="14" type="line"/>
      <point x="58" y="187" type="line"/>
      <point x="50" y="375" type="line"/>
      <point x="152" y="375" type="line"/>
      <point x="144" y="187" type="line"/>
      <point x="149" y="65" type="line"/>
      <point x="207" y="56" type="line"/>
      <point x="287" y="78" type="line"/>
      <point x="291" y="187" type="line"/>
      <point x="283" y="375" type="line"/>
      <point x="386" y="375" type="line"/>
      <point x="378" y="187" type="line"/>
    </contour>
  </outline>
</glyph>
<glyph name="v" format="1">
  <advance width="401"/>
  <unicode hex="0076"/>
  <outline>
    <contour>
      <point x="380" y="366" type="line"/>
      <point x="308" y="177" type="line"/>
      <point x="249" y="0" type="line"/>
      <point x="159" y="0" type="line"/>
      <point x="99" y="167" type="line"/>
      <point x="21" y="355" type="line"/>
      <point x="122" y="388" type="line"/>
      <point x="161" y="241" type="line"/>
      <point x="214" y="82" type="line"/>
      <point x="272" y="250" type="line"/>
      <point x="308" y="388" type="line"/>
    </contour>
  </outline>
</glyph>
<glyph name="w" format="1">
  <advance width="615"/>
  <unicode hex="0077"/>
  <outline>
    <contour>
      <point x="594" y="366" type="line"/>
      <point x="522" y="177" type="line"/>
      <point x="463" y="0" type="line"/>
      <point x="373" y="0" type="line"/>
      <point x="308" y="179" type="line"/>
      <point x="249" y="0" type="line"/>
      <point x="159" y="0" type="line"/>
      <point x="100" y="167" type="line"/>
      <point x="21" y="355" type="line"/>
      <point x="122" y="388" type="line"/>
      <point x="161" y="241" type="line"/>
      <point x="214" y="82" type="line"/>
      <point x="275" y="257" type="line"/>
      <point x="235" y="355" type="line"/>
      <point x="336" y="388" type="line"/>
      <point x="375" y="241" type="line"/>
      <point x="428" y="82" type="line"/>
      <point x="487" y="250" type="line"/>
      <point x="522" y="388" type="line"/>
    </contour>
  </outline>
</glyph>
<glyph name="x" format="1">
  <advance width="400"/>
  <unicode hex="0078"/>
  <outline>
    <contour>
      <point x="379" y="33" type="line"/>
      <point x="295" y="-15" type="line"/>
      <point x="189" y="139" type="line"/>
      <point x="76" y="-14" type="line"/>
      <point x="24" y="31" type="line"/>
      <point x="157" y="183" type="line"/>
      <point x="30" y="342" type="line"/>
      <point x="114" y="390" type="line"/>
      <point x="211" y="246" type="line"/>
      <point x="315" y="389" type="line"/>
      <point x="367" y="344" type="line"/>
      <point x="243" y="204" type="line"/>
    </contour>
  </outline>
</glyph>
<glyph name="y" format="1">
  <advance width="437"/>
  <unicode hex="0079"/>
  <outline>
    <contour>
      <point x="386" y="-106" type="line"/>
      <point x="260" y="-140" type="line"/>
      <point x="147" y="-140" type="line"/>
      <point x="43" y="-125" type="line"/>
      <point x="56" y="-58" type="line"/>
      <point x="190" y="-91" type="line"/>
      <point x="285" y="-78" type="line"/>
      <point x="288" y="31" type="line"/>
      <point x="181" y="-5" type="line"/>
      <point x="51" y="14" type="line"/>
      <point x="58" y="187" type="line"/>
      <point x="50" y="375" type="line"/>
      <point x="152" y="375" type="line"/>
      <point x="144" y="187" type="line"/>
      <point x="149" y="65" type="line"/>
      <point x="207" y="56" type="line"/>
      <point x="288" y="79" type="line"/>
      <point x="291" y="187" type="line"/>
      <point x="283" y="375" type="line"/>
      <point x="386" y="375" type="line"/>
      <point x="378" y="155" type="line"/>
    </contour>
  </outline>
</glyph>
<glyph name="z" format="1">
  <advance width="374"/>
  <unicode hex="007A"/>
  <outline>
    <contour>
      <point x="343" y="0" type="line"/>
      <point x="35" y="0" type="line"/>
      <point x="23" y="41" type="line"/>
      <point x="236" y="327" type="line"/>
      <point x="57" y="310" type="line"/>
      <point x="45" y="375" type="line"/>
      <point x="328" y="375" type="line"/>
      <point x="340" y="334" type="line"/>
      <point x="127" y="48" type="line"/>
      <point x="330" y="66" type="line"/>
    </contour>
  </outline>
</glyph>
<glyph name="braceleft" format="1">
  <advance width="460"/>
  <unicode hex="007B"/>
  <outline>
    <contour>
      <point x="422" y="-102" type="line"/>
      <point x="392" y="-152" type="line"/>
      <point x="163" y="-41" type="line"/>
      <point x="201" y="121" type="line"/>
      <point x="109" y="187" type="line"/>
      <point x="29" y="201" type="line"/>
      <point x="29" y="253" type="line"/>
      <point x="109" y="267" type="line"/>
      <point x="201" y="333" type="line"/>
      <point x="163" y="496" type="line"/>
      <point x="392" y="607" type="line"/>
      <point x="422" y="557" type="line"/>
      <point x="267" y="473" type="line"/>
      <point x="307" y="312" type="line"/>
      <point x="177" y="227" type="line"/>
      <point x="307" y="142" type="line"/>
      <point x="267" y="-18" type="line"/>
    </contour>
  </outline>
</glyph>
<glyph name="bar" format="1">
  <advance width="274"/>
  <unicode hex="007C"/>
  <outline>
    <contour>
      <point x="185" y="227" type="line"/>
      <point x="172" y="-140" type="line"/>
      <point x="101" y="-140" type="line"/>
      <point x="89" y="227" type="line"/>
      <point x="101" y="595" type="line"/>
      <point x="172" y="595" type="line"/>
    </contour>
  </outline>
</glyph>
<glyph name="braceright" format="1">
  <advance width="460"/>
  <unicode hex="007D"/>
  <outline>
    <contour>
      <point x="431" y="201" type="line"/>
      <point x="351" y="187" type="line"/>
      <point x="260" y="121" type="line"/>
      <point x="297" y="-41" type="line"/>
      <point x="68" y="-152" type="line"/>
      <point x="39" y="-102" type="line"/>
      <point x="194" y="-18" type="line"/>
      <point x="154" y="142" type="line"/>
      <point x="284" y="227" type="line"/>
      <point x="154" y="312" type="line"/>
      <point x="194" y="473" type="line"/>
      <point x="39" y="557" type="line"/>
      <point x="68" y="607" type="line"/>
      <point x="297" y="496" type="line"/>
      <point x="260" y="333" type="line"/>
      <point x="351" y="267" type="line"/>
      <point x="431" y="253" type="line"/>
    </contour>
  </outline>
</glyph>
<glyph name="asciitilde" format="1">
  <advance width="455"/>
  <unicode hex="007E"/>
  <outline>
    <contour>
      <point x="422" y="276" type="line"/>
      <point x="353" y="213" type="line"/>
      <point x="304" y="149" type="line"/>
      <point x="241" y="149" type="line"/>
      <point x="167" y="216" type="line"/>
      <point x="70" y="144" type="line"/>
      <point x="33" y="180" type="line"/>
      <point x="102" y="243" type="line"/>
      <point x="151" y="306" type="line"/>
      <point x="214" y="306" type="line"/>
      <point x="288" y="240" type="line"/>
      <point x="385" y="312" type="line"/>
    </contour>
  </outline>
</glyph>
<glyph name="cent" format="1">
  <advance width="483"/>
  <unicode hex="00A2"/>
  <outline>
    <contour>
      <point x="441" y="500" type="line"/>
      <point x="416" y="416" type="line"/>
      <point x="274" y="472" type="line"/>
      <point x="162" y="435" type="line"/>
      <point x="139" y="297" type="line"/>
      <point x="162" y="160" type="line"/>
      <point x="273" y="123" type="line"/>
      <point x="418" y="172" type="line"/>
      <point x="437" y="112" type="line"/>
      <point x="310" y="64" type="line"/>
      <point x="318" y="-10" type="line"/>
      <point x="218" y="-10" type="line"/>
      <point x="226" y="64" type="line"/>
      <point x="73" y="116" type="line"/>
      <point x="45" y="297" type="line"/>
      <point x="73" y="479" type="line"/>
      <point x="226" y="531" type="line"/>
      <point x="218" y="605" type="line"/>
      <point x="318" y="605" type="line"/>
      <point x="310" y="532" type="line"/>
    </contour>
  </outline>
</glyph>
<glyph name="sterling" format="1">
  <advance width="518"/>
  <unicode hex="00A3"/>
  <outline>
    <contour>
      <point x="489" y="0" type="line"/>
      <point x="37" y="0" type="line"/>
      <point x="37" y="53" type="line"/>
      <point x="112" y="53" type="line"/>
      <point x="142" y="171" type="line"/>
      <point x="123" y="264" type="line"/>
      <point x="41" y="269" type="line"/>
      <point x="41" y="319" type="line"/>
      <point x="111" y="323" type="line"/>
      <point x="98" y="389" type="line"/>
      <point x="98" y="551" type="line"/>
      <point x="245" y="600" type="line"/>
      <point x="342" y="600" type="line"/>
      <point x="486" y="570" type="line"/>
      <point x="460" y="486" type="line"/>
      <point x="291" y="546" type="line"/>
      <point x="192" y="516" type="line"/>
      <point x="192" y="400" type="line"/>
      <point x="209" y="327" type="line"/>
      <point x="366" y="319" type="line"/>
      <point x="366" y="269" type="line"/>
      <point x="224" y="262" type="line"/>
      <point x="241" y="183" type="line"/>
      <point x="205" y="53" type="line"/>
      <point x="476" y="80" type="line"/>
    </contour>
  </outline>
</glyph>
<glyph name="yen" format="1">
  <advance width="574"/>
  <unicode hex="00A5"/>
  <outline>
    <contour>
      <point x="553" y="567" type="line"/>
      <point x="361" y="279" type="line"/>
      <point x="493" y="274" type="line"/>
      <point x="493" y="227" type="line"/>
      <point x="339" y="222" type="line"/>
      <point x="341" y="163" type="line"/>
      <point x="493" y="157" type="line"/>
      <point x="493" y="110" type="line"/>
      <point x="343" y="105" type="line"/>
      <point x="346" y="0" type="line"/>
      <point x="236" y="0" type="line"/>
      <point x="239" y="105" type="line"/>
      <point x="88" y="110" type="line"/>
      <point x="88" y="157" type="line"/>
      <point x="240" y="163" type="line"/>
      <point x="242" y="222" type="line"/>
      <point x="88" y="227" type="line"/>
      <point x="88" y="274" type="line"/>
      <point x="213" y="279" type="line"/>
      <point x="21" y="550" type="line"/>
      <point x="112" y="606" type="line"/>
      <point x="188" y="476" type="line"/>
      <point x="306" y="308" type="line"/>
      <point x="418" y="482" type="line"/>
      <point x="483" y="606" type="line"/>
    </contour>
  </outline>
</glyph>
<glyph name="section" format="1">
  <advance width="512"/>
  <unicode hex="00A7"/>
  <outline>
    <contour>
      <point x="452" y="291" type="line"/>
      <point x="394" y="194" type="line"/>
      <point x="442" y="176" type="line"/>
      <point x="442" y="43" type="line"/>
      <point x="304" y="-5" type="line"/>
      <point x="208" y="-5" type="line"/>
      <point x="60" y="20" type="line"/>
      <point x="83" y="102" type="line"/>
      <point x="256" y="50" type="line"/>
      <point x="349" y="79" type="line"/>
      <point x="349" y="130" type="line"/>
      <point x="60" y="234" type="line"/>
      <point x="60" y="304" type="line"/>
      <point x="118" y="401" type="line"/>
      <point x="70" y="419" type="line"/>
      <point x="70" y="552" type="line"/>
      <point x="208" y="600" type="line"/>
      <point x="304" y="600" type="line"/>
      <point x="452" y="575" type="line"/>
      <point x="429" y="493" type="line"/>
      <point x="256" y="545" type="line"/>
      <point x="163" y="516" type="line"/>
      <point x="163" y="465" type="line"/>
      <point x="452" y="361" type="line"/>
    </contour>
    <contour>
      <point x="375" y="306" type="line"/>
      <point x="182" y="378" type="line"/>
      <point x="137" y="289" type="line"/>
      <point x="330" y="217" type="line"/>
    </contour>
  </outline>
</glyph>
<glyph name="dieresis" format="1">
  <advance width="438"/>
  <unicode hex="00A8"/>
  <outline>
    <contour>
      <point x="346" y="464" type="line"/>
      <point x="343" y="417" type="line"/>
      <point x="247" y="417" type="line"/>
      <point x="244" y="464" type="line"/>
      <point x="247" y="511" type="line"/>
      <point x="343" y="511" type="line"/>
    </contour>
    <contour>
      <point x="194" y="464" type="line"/>
      <point x="191" y="417" type="line"/>
      <point x="95" y="417" type="line"/>
      <point x="92" y="464" type="line"/>
      <point x="95" y="511" type="line"/>
      <point x="191" y="511" type="line"/>
    </contour>
  </outline>
</glyph>
<glyph name="copyright" format="1">
  <advance width="709"/>
  <unicode hex="00A9"/>
  <outline>
    <contour>
      <point x="668" y="297" type="line"/>
      <point x="633" y="46" type="line"/>
      <point x="423" y="-5" type="line"/>
      <point x="286" y="-5" type="line"/>
      <point x="76" y="46" type="line"/>
      <point x="41" y="297" type="line"/>
      <point x="76" y="549" type="line"/>
      <point x="286" y="600" type="line"/>
      <point x="423" y="600" type="line"/>
      <point x="633" y="549" type="line"/>
    </contour>
    <contour>
      <point x="629" y="297" type="line"/>
      <point x="599" y="523" type="line"/>
      <point x="418" y="566" type="line"/>
      <point x="291" y="566" type="line"/>
      <point x="111" y="523" type="line"/>
      <point x="80" y="297" type="line"/>
      <point x="111" y="73" type="line"/>
      <point x="291" y="29" type="line"/>
      <point x="418" y="29" type="line"/>
      <point x="599" y="73" type="line"/>
    </contour>
    <contour>
      <point x="494" y="480" type="line"/>
      <point x="475" y="415" type="line"/>
      <point x="361" y="456" type="line"/>
      <point x="275" y="435" type="line"/>
      <point x="257" y="301" type="line"/>
      <point x="275" y="168" type="line"/>
      <point x="360" y="147" type="line"/>
      <point x="475" y="189" type="line"/>
      <point x="491" y="136" type="line"/>
      <point x="385" y="103" type="line"/>
      <point x="328" y="103" type="line"/>
      <point x="204" y="138" type="line"/>
      <point x="182" y="301" type="line"/>
      <point x="204" y="466" type="line"/>
      <point x="328" y="499" type="line"/>
      <point x="389" y="499" type="line"/>
    </contour>
  </outline>
</glyph>
<glyph name="ordfeminine" format="1">
  <advance width="400"/>
  <unicode hex="00AA"/>
  <outline>
    <contour>
      <point x="355" y="240" type="line"/>
      <point x="257" y="240" type="line"/>
      <point x="258" y="269" type="line"/>
      <point x="167" y="235" type="line"/>
      <point x="52" y="264" type="line"/>
      <point x="39" y="352" type="line"/>
      <point x="52" y="441" type="line"/>
      <point x="181" y="469" type="line"/>
      <point x="264" y="444" type="line"/>
      <point x="262" y="529" type="line"/>
      <point x="225" y="553" type="line"/>
      <point x="183" y="553" type="line"/>
      <point x="68" y="522" type="line"/>
      <point x="55" y="583" type="line"/>
      <point x="159" y="600" type="line"/>
      <point x="263" y="600" type="line"/>
      <point x="354" y="563" type="line"/>
      <point x="349" y="417" type="line"/>
    </contour>
    <contour>
      <point x="356" y="157" type="line"/>
      <point x="201" y="149" type="line"/>
      <point x="47" y="157" type="line"/>
      <point x="47" y="197" type="line"/>
      <point x="201" y="205" type="line"/>
      <point x="356" y="197" type="line"/>
    </contour>
    <contour>
      <point x="263" y="400" type="line"/>
      <point x="191" y="418" type="line"/>
      <point x="131" y="404" type="line"/>
      <point x="123" y="353" type="line"/>
      <point x="131" y="302" type="line"/>
      <point x="188" y="290" type="line"/>
      <point x="260" y="313" type="line"/>
    </contour>
  </outline>
</glyph>
<glyph name="guillemotleft" format="1">
  <advance width="477"/>
  <unicode hex="00AB"/>
  <outline>
    <contour>
      <point x="448" y="54" type="line"/>
      <point x="408" y="24" type="line"/>
      <point x="296" y="123" type="line"/>
      <point x="230" y="165" type="line"/>
      <point x="230" y="215" type="line"/>
      <point x="296" y="257" type="line"/>
      <point x="408" y="356" type="line"/>
      <point x="448" y="326" type="line"/>
      <point x="341" y="190" type="line"/>
    </contour>
    <contour>
      <point x="246" y="54" type="line"/>
      <point x="207" y="24" type="line"/>
      <point x="94" y="123" type="line"/>
      <point x="29" y="165" type="line"/>
      <point x="29" y="215" type="line"/>
      <point x="94" y="257" type="line"/>
      <point x="207" y="356" type="line"/>
      <point x="246" y="326" type="line"/>
      <point x="140" y="190" type="line"/>
    </contour>
  </outline>
</glyph>
<glyph name="degree" format="1">
  <advance width="428"/>
  <unicode hex="00B0"/>
  <outline>
    <contour>
      <point x="394" y="419" type="line"/>
      <point x="373" y="268" type="line"/>
      <point x="254" y="237" type="line"/>
      <point x="174" y="237" type="line"/>
      <point x="55" y="267" type="line"/>
      <point x="34" y="418" type="line"/>
      <point x="55" y="569" type="line"/>
      <point x="174" y="600" type="line"/>
      <point x="254" y="600" type="line"/>
      <point x="373" y="570" type="line"/>
    </contour>
    <contour>
      <point x="309" y="418" type="line"/>
      <point x="293" y="529" type="line"/>
      <point x="214" y="546" type="line"/>
      <point x="134" y="529" type="line"/>
      <point x="119" y="419" type="line"/>
      <point x="134" y="308" type="line"/>
      <point x="214" y="291" type="line"/>
      <point x="293" y="308" type="line"/>
    </contour>
  </outline>
</glyph>
<glyph name="acute" format="1">
  <advance width="438"/>
  <unicode hex="00B4"/>
  <outline>
    <contour>
      <point x="322" y="483" type="line"/>
      <point x="272" y="438" type="line"/>
      <point x="137" y="404" type="line"/>
      <point x="124" y="436" type="line"/>
      <point x="197" y="481" type="line"/>
      <point x="253" y="541" type="line"/>
    </contour>
  </outline>
</glyph>
<glyph name="paragraph" format="1">
  <advance width="520"/>
  <unicode hex="00B6"/>
  <outline>
    <contour>
      <point x="458" y="0" type="line"/>
      <point x="366" y="0" type="line"/>
      <point x="375" y="296" type="line"/>
      <point x="369" y="531" type="line"/>
      <point x="316" y="531" type="line"/>
      <point x="308" y="406" type="line"/>
      <point x="316" y="276" type="line"/>
      <point x="215" y="236" type="line"/>
      <point x="51" y="287" type="line"/>
      <point x="32" y="415" type="line"/>
      <point x="51" y="543" type="line"/>
      <point x="223" y="595" type="line"/>
      <point x="458" y="595" type="line"/>
      <point x="449" y="297" type="line"/>
    </contour>
  </outline>
</glyph>
<glyph name="periodcentered" format="1">
  <advance width="195"/>
  <unicode hex="00B7"/>
  <outline>
    <contour>
      <point x="153" y="227" type="line"/>
      <point x="151" y="175" type="line"/>
      <point x="45" y="175" type="line"/>
      <point x="42" y="227" type="line"/>
      <point x="45" y="279" type="line"/>
      <point x="151" y="279" type="line"/>
    </contour>
  </outline>
</glyph>
<glyph name="cedilla" format="1">
  <advance width="438"/>
  <unicode hex="00B8"/>
  <outline>
    <contour>
      <point x="290" y="-35" type="line"/>
      <point x="247" y="-78" type="line"/>
      <point x="146" y="-102" type="line"/>
      <point x="130" y="-71" type="line"/>
      <point x="185" y="-33" type="line"/>
      <point x="233" y="28" type="line"/>
    </contour>
  </outline>
</glyph>
<glyph name="ordmasculine" format="1">
  <advance width="428"/>
  <unicode hex="00BA"/>
  <outline>
    <contour>
      <point x="394" y="419" type="line"/>
      <point x="373" y="268" type="line"/>
      <point x="254" y="237" type="line"/>
      <point x="174" y="237" type="line"/>
      <point x="55" y="267" type="line"/>
      <point x="34" y="418" type="line"/>
      <point x="55" y="569" type="line"/>
      <point x="174" y="600" type="line"/>
      <point x="254" y="600" type="line"/>
      <point x="373" y="570" type="line"/>
    </contour>
    <contour>
      <point x="380" y="157" type="line"/>
      <point x="214" y="149" type="line"/>
      <point x="47" y="157" type="line"/>
      <point x="47" y="197" type="line"/>
      <point x="214" y="205" type="line"/>
      <point x="380" y="197" type="line"/>
    </contour>
    <contour>
      <point x="309" y="418" type="line"/>
      <point x="293" y="529" type="line"/>
      <point x="214" y="546" type="line"/>
      <point x="134" y="529" type="line"/>
      <point x="119" y="419" type="line"/>
      <point x="134" y="308" type="line"/>
      <point x="214" y="291" type="line"/>
      <point x="293" y="308" type="line"/>
    </contour>
  </outline>
</glyph>
<glyph name="guillemotright" format="1">
  <advance width="477"/>
  <unicode hex="00BB"/>
  <outline>
    <contour>
      <point x="448" y="165" type="line"/>
      <point x="383" y="123" type="line"/>
      <point x="270" y="24" type="line"/>
      <point x="231" y="54" type="line"/>
      <point x="338" y="190" type="line"/>
      <point x="231" y="326" type="line"/>
      <point x="270" y="356" type="line"/>
      <point x="383" y="257" type="line"/>
      <point x="448" y="215" type="line"/>
    </contour>
    <contour>
      <point x="247" y="165" type="line"/>
      <point x="182" y="123" type="line"/>
      <point x="69" y="24" type="line"/>
      <point x="30" y="54" type="line"/>
      <point x="136" y="190" type="line"/>
      <point x="30" y="326" type="line"/>
      <point x="69" y="356" type="line"/>
      <point x="182" y="257" type="line"/>
      <point x="247" y="215" type="line"/>
    </contour>
  </outline>
</glyph>
<glyph name="Aring" format="1">
  <advance width="593"/>
  <unicode hex="00C5"/>
  <outline>
    <contour>
      <point x="396" y="703" type="line"/>
      <point x="384" y="638" type="line"/>
      <point x="322" y="620" type="line"/>
      <point x="268" y="620" type="line"/>
      <point x="206" y="637" type="line"/>
      <point x="194" y="702" type="line"/>
      <point x="206" y="767" type="line"/>
      <point x="268" y="784" type="line"/>
      <point x="322" y="784" type="line"/>
      <point x="384" y="767" type="line"/>
    </contour>
    <contour>
      <point x="559" y="25" type="line"/>
      <point x="458" y="-11" type="line"/>
      <point x="416" y="125" type="line"/>
      <point x="149" y="125" type="line"/>
      <point x="107" y="-11" type="line"/>
      <point x="34" y="17" type="line"/>
      <point x="150" y="321" type="line"/>
      <point x="244" y="597" type="line"/>
      <point x="345" y="597" type="line"/>
      <point x="438" y="328" type="line"/>
    </contour>
    <contour>
      <point x="338" y="702" type="line"/>
      <point x="330" y="741" type="line"/>
      <point x="295" y="748" type="line"/>
      <point x="260" y="741" type="line"/>
      <point x="252" y="703" type="line"/>
      <point x="260" y="664" type="line"/>
      <point x="295" y="656" type="line"/>
      <point x="330" y="664" type="line"/>
    </contour>
    <contour>
      <point x="397" y="191" type="line"/>
      <point x="284" y="512" type="line"/>
      <point x="170" y="191" type="line"/>
    </contour>
  </outline>
</glyph>
<glyph name="AE" format="1">
  <advance width="787"/>
  <unicode hex="00C6"/>
  <outline>
    <contour>
      <point x="753" y="0" type="line"/>
      <point x="390" y="0" type="line"/>
      <point x="394" y="125" type="line"/>
      <point x="174" y="125" type="line"/>
      <point x="107" y="-11" type="line"/>
      <point x="34" y="21" type="line"/>
      <point x="202" y="321" type="line"/>
      <point x="337" y="595" type="line"/>
      <point x="749" y="595" type="line"/>
      <point x="733" y="517" type="line"/>
      <point x="490" y="541" type="line"/>
      <point x="485" y="331" type="line"/>
      <point x="668" y="340" type="line"/>
      <point x="668" y="265" type="line"/>
      <point x="485" y="275" type="line"/>
      <point x="490" y="54" type="line"/>
      <point x="737" y="78" type="line"/>
    </contour>
    <contour>
      <point x="398" y="297" type="line"/>
      <point x="391" y="538" type="line"/>
      <point x="220" y="218" type="line"/>
      <point x="206" y="191" type="line"/>
      <point x="395" y="191" type="line"/>
    </contour>
  </outline>
</glyph>
<glyph name="Ccedilla" format="1">
  <advance width="533"/>
  <unicode hex="00C7"/>
  <outline>
    <contour>
      <point x="493" y="570" type="line"/>
      <point x="469" y="486" type="line"/>
      <point x="301" y="542" type="line"/>
      <point x="163" y="507" type="line"/>
      <point x="137" y="297" type="line"/>
      <point x="163" y="88" type="line"/>
      <point x="300" y="53" type="line"/>
      <point x="464" y="116" type="line"/>
      <point x="489" y="42" type="line"/>
      <point x="336" y="-5" type="line"/>
      <point x="323" y="-5" type="line"/>
      <point x="350" y="-35" type="line"/>
      <point x="307" y="-78" type="line"/>
      <point x="206" y="-102" type="line"/>
      <point x="190" y="-71" type="line"/>
      <point x="245" y="-33" type="line"/>
      <point x="267" y="-5" type="line"/>
      <point x="254" y="-5" type="line"/>
      <point x="74" y="46" type="line"/>
      <point x="43" y="297" type="line"/>
      <point x="74" y="549" type="line"/>
      <point x="254" y="600" type="line"/>
      <point x="342" y="600" type="line"/>
    </contour>
  </outline>
</glyph>
<glyph name="Eth" format="1">
  <advance width="603"/>
  <unicode hex="00D0"/>
  <outline>
    <contour>
      <point x="561" y="297" type="line"/>
      <point x="530" y="51" type="line"/>
      <point x="352" y="0" type="line"/>
      <point x="75" y="0" type="line"/>
      <point x="82" y="264" type="line"/>
      <point x="19" y="270" type="line"/>
      <point x="19" y="324" type="line"/>
      <point x="82" y="329" type="line"/>
      <point x="75" y="595" type="line"/>
      <point x="352" y="595" type="line"/>
      <point x="530" y="544" type="line"/>
    </contour>
    <contour>
      <point x="467" y="297" type="line"/>
      <point x="440" y="502" type="line"/>
      <point x="315" y="531" type="line"/>
      <point x="176" y="531" type="line"/>
      <point x="171" y="331" type="line"/>
      <point x="293" y="324" type="line"/>
      <point x="293" y="270" type="line"/>
      <point x="171" y="263" type="line"/>
      <point x="176" y="64" type="line"/>
      <point x="315" y="64" type="line"/>
      <point x="440" y="93" type="line"/>
    </contour>
  </outline>
</glyph>
<glyph name="Oslash" format="1">
  <advance width="612"/>
  <unicode hex="00D8"/>
  <outline>
    <contour>
      <point x="569" y="297" type="line"/>
      <point x="537" y="46" type="line"/>
      <point x="355" y="-5" type="line"/>
      <point x="257" y="-5" type="line"/>
      <point x="206" y="10" type="line"/>
      <point x="159" y="-87" type="line"/>
      <point x="117" y="-69" type="line"/>
      <point x="153" y="24" type="line"/>
      <point x="74" y="46" type="line"/>
      <point x="43" y="297" type="line"/>
      <point x="74" y="549" type="line"/>
      <point x="257" y="600" type="line"/>
      <point x="355" y="600" type="line"/>
      <point x="405" y="585" type="line"/>
      <point x="453" y="682" type="line"/>
      <point x="495" y="664" type="line"/>
      <point x="457" y="571" type="line"/>
      <point x="537" y="549" type="line"/>
    </contour>
    <contour>
      <point x="375" y="525" type="line"/>
      <point x="306" y="542" type="line"/>
      <point x="163" y="507" type="line"/>
      <point x="137" y="297" type="line"/>
      <point x="161" y="100" type="line"/>
      <point x="182" y="94" type="line"/>
      <point x="271" y="314" type="line"/>
    </contour>
    <contour>
      <point x="474" y="297" type="line"/>
      <point x="450" y="495" type="line"/>
      <point x="429" y="500" type="line"/>
      <point x="341" y="282" type="line"/>
      <point x="236" y="70" type="line"/>
      <point x="305" y="53" type="line"/>
      <point x="448" y="88" type="line"/>
    </contour>
  </outline>
</glyph>
<glyph name="Thorn" format="1">
  <advance width="521"/>
  <unicode hex="00DE"/>
  <outline>
    <contour>
      <point x="491" y="299" type="line"/>
      <point x="472" y="163" type="line"/>
      <point x="308" y="112" type="line"/>
      <point x="160" y="112" type="line"/>
      <point x="163" y="0" type="line"/>
      <point x="60" y="0" type="line"/>
      <point x="68" y="297" type="line"/>
      <point x="60" y="595" type="line"/>
      <point x="163" y="595" type="line"/>
      <point x="160" y="487" type="line"/>
      <point x="308" y="487" type="line"/>
      <point x="472" y="436" type="line"/>
    </contour>
    <contour>
      <point x="395" y="299" type="line"/>
      <point x="383" y="392" type="line"/>
      <point x="282" y="423" type="line"/>
      <point x="158" y="423" type="line"/>
      <point x="155" y="297" type="line"/>
      <point x="158" y="176" type="line"/>
      <point x="282" y="176" type="line"/>
      <point x="383" y="207" type="line"/>
    </contour>
  </outline>
</glyph>
<glyph name="germandbls" format="1">
  <advance width="538"/>
  <unicode hex="00DF"/>
  <outline>
    <contour>
      <point x="510" y="22" type="line"/>
      <point x="398" y="-5" type="line"/>
      <point x="323" y="-5" type="line"/>
      <point x="233" y="15" type="line"/>
      <point x="249" y="79" type="line"/>
      <point x="360" y="43" type="line"/>
      <point x="422" y="59" type="line"/>
      <point x="422" y="121" type="line"/>
      <point x="247" y="247" type="line"/>
      <point x="237" y="285" type="line"/>
      <point x="301" y="603" type="line"/>
      <point x="282" y="688" type="line"/>
      <point x="219" y="701" type="line"/>
      <point x="156" y="689" type="line"/>
      <point x="149" y="354" type="line"/>
      <point x="158" y="0" type="line"/>
      <point x="57" y="0" type="line"/>
      <point x="64" y="322" type="line"/>
      <point x="32" y="327" type="line"/>
      <point x="32" y="373" type="line"/>
      <point x="65" y="378" type="line"/>
      <point x="57" y="730" type="line"/>
      <point x="177" y="750" type="line"/>
      <point x="259" y="750" type="line"/>
      <point x="364" y="727" type="line"/>
      <point x="396" y="608" type="line"/>
      <point x="309" y="306" type="line"/>
      <point x="510" y="158" type="line"/>
    </contour>
  </outline>
</glyph>
<glyph name="ae" format="1">
  <advance width="614"/>
  <unicode hex="00E6"/>
  <outline>
    <contour>
      <point x="573" y="203" type="line"/>
      <point x="361" y="149" type="line"/>
      <point x="369" y="56" type="line"/>
      <point x="437" y="43" type="line"/>
      <point x="554" y="71" type="line"/>
      <point x="568" y="11" type="line"/>
      <point x="477" y="-5" type="line"/>
      <point x="397" y="-5" type="line"/>
      <point x="282" y="20" type="line"/>
      <point x="281" y="36" type="line"/>
      <point x="171" y="-5" type="line"/>
      <point x="51" y="25" type="line"/>
      <point x="36" y="117" type="line"/>
      <point x="51" y="211" type="line"/>
      <point x="186" y="240" type="line"/>
      <point x="273" y="214" type="line"/>
      <point x="271" y="309" type="line"/>
      <point x="232" y="327" type="line"/>
      <point x="188" y="327" type="line"/>
      <point x="67" y="295" type="line"/>
      <point x="54" y="359" type="line"/>
      <point x="163" y="377" type="line"/>
      <point x="260" y="377" type="line"/>
      <point x="313" y="357" type="line"/>
      <point x="397" y="380" type="line"/>
      <point x="455" y="380" type="line"/>
      <point x="560" y="356" type="line"/>
    </contour>
    <contour>
      <point x="481" y="226" type="line"/>
      <point x="474" y="321" type="line"/>
      <point x="423" y="332" type="line"/>
      <point x="364" y="318" type="line"/>
      <point x="360" y="195" type="line"/>
    </contour>
    <contour>
      <point x="277" y="80" type="line"/>
      <point x="269" y="168" type="line"/>
      <point x="197" y="186" type="line"/>
      <point x="133" y="171" type="line"/>
      <point x="126" y="118" type="line"/>
      <point x="133" y="66" type="line"/>
      <point x="194" y="54" type="line"/>
    </contour>
  </outline>
</glyph>
<glyph name="ccedilla" format="1">
  <advance width="363"/>
  <unicode hex="00E7"/>
  <outline>
    <contour>
      <point x="329" y="12" type="line"/>
      <point x="247" y="-5" type="line"/>
      <point x="230" y="-5" type="line"/>
      <point x="258" y="-35" type="line"/>
      <point x="215" y="-78" type="line"/>
      <point x="113" y="-102" type="line"/>
      <point x="97" y="-71" type="line"/>
      <point x="153" y="-33" type="line"/>
      <point x="176" y="-3" type="line"/>
      <point x="163" y="-3" type="line"/>
      <point x="58" y="20" type="line"/>
      <point x="43" y="188" type="line"/>
      <point x="58" y="355" type="line"/>
      <point x="172" y="380" type="line"/>
      <point x="247" y="380" type="line"/>
      <point x="328" y="369" type="line"/>
      <point x="314" y="299" type="line"/>
      <point x="210" y="331" type="line"/>
      <point x="146" y="319" type="line"/>
      <point x="134" y="188" type="line"/>
      <point x="146" y="57" type="line"/>
      <point x="210" y="44" type="line"/>
      <point x="315" y="71" type="line"/>
    </contour>
  </outline>
</glyph>
<glyph name="eth" format="1">
  <advance width="429"/>
  <unicode hex="00F0"/>
  <outline>
    <contour>
      <point x="464" y="517" type="line"/>
      <point x="378" y="512" type="line"/>
      <point x="386" y="372" type="line"/>
      <point x="372" y="20" type="line"/>
      <point x="252" y="-5" type="line"/>
      <point x="177" y="-5" type="line"/>
      <point x="58" y="20" type="line"/>
      <point x="43" y="188" type="line"/>
      <point x="58" y="355" type="line"/>
      <point x="194" y="380" type="line"/>
      <point x="296" y="364" type="line"/>
      <point x="296" y="372" type="line"/>
      <point x="288" y="512" type="line"/>
      <point x="173" y="517" type="line"/>
      <point x="173" y="563" type="line"/>
      <point x="285" y="568" type="line"/>
      <point x="279" y="687" type="line"/>
      <point x="226" y="701" type="line"/>
      <point x="121" y="664" type="line"/>
      <point x="100" y="727" type="line"/>
      <point x="188" y="750" type="line"/>
      <point x="263" y="750" type="line"/>
      <point x="366" y="725" type="line"/>
      <point x="375" y="568" type="line"/>
      <point x="464" y="563" type="line"/>
    </contour>
    <contour>
      <point x="294" y="312" type="line"/>
      <point x="214" y="328" type="line"/>
      <point x="146" y="316" type="line"/>
      <point x="134" y="188" type="line"/>
      <point x="146" y="58" type="line"/>
      <point x="215" y="44" type="line"/>
      <point x="284" y="58" type="line"/>
    </contour>
  </outline>
</glyph>
<glyph name="oslash" format="1">
  <advance width="430"/>
  <unicode hex="00F8"/>
  <outline>
    <contour>
      <point x="387" y="188" type="line"/>
      <point x="372" y="20" type="line"/>
      <point x="252" y="-5" type="line"/>
      <point x="177" y="-5" type="line"/>
      <point x="150" y="1" type="line"/>
      <point x="103" y="-87" type="line"/>
      <point x="62" y="-69" type="line"/>
      <point x="98" y="12" type="line"/>
      <point x="58" y="20" type="line"/>
      <point x="43" y="188" type="line"/>
      <point x="58" y="355" type="line"/>
      <point x="177" y="380" type="line"/>
      <point x="252" y="380" type="line"/>
      <point x="278" y="374" type="line"/>
      <point x="326" y="463" type="line"/>
      <point x="367" y="445" type="line"/>
      <point x="330" y="364" type="line"/>
      <point x="372" y="355" type="line"/>
    </contour>
    <contour>
      <point x="251" y="325" type="line"/>
      <point x="216" y="331" type="line"/>
      <point x="138" y="318" type="line"/>
      <point x="124" y="188" type="line"/>
      <point x="134" y="90" type="line"/>
      <point x="189" y="210" type="line"/>
    </contour>
    <contour>
      <point x="306" y="188" type="line"/>
      <point x="295" y="287" type="line"/>
      <point x="240" y="166" type="line"/>
      <point x="177" y="51" type="line"/>
      <point x="215" y="44" type="line"/>
      <point x="292" y="58" type="line"/>
    </contour>
  </outline>
</glyph>
<glyph name="thorn" format="1">
  <advance width="432"/>
  <unicode hex="00FE"/>
  <outline>
    <contour>
      <point x="386" y="188" type="line"/>
      <point x="371" y="13" type="line"/>
      <point x="255" y="-5" type="line"/>
      <point x="148" y="31" type="line"/>
      <point x="152" y="-140" type="line"/>
      <point x="50" y="-140" type="line"/>
      <point x="59" y="305" type="line"/>
      <point x="50" y="750" type="line"/>
      <point x="154" y="750" type="line"/>
      <point x="144" y="342" type="line"/>
      <point x="256" y="380" type="line"/>
      <point x="371" y="362" type="line"/>
    </contour>
    <contour>
      <point x="295" y="188" type="line"/>
      <point x="284" y="310" type="line"/>
      <point x="230" y="319" type="line"/>
      <point x="143" y="295" type="line"/>
      <point x="147" y="79" type="line"/>
      <point x="230" y="56" type="line"/>
      <point x="284" y="65" type="line"/>
    </contour>
  </outline>
</glyph>
<glyph name="dotlessi" format="1">
  <advance width="215"/>
  <unicode hex="0131"/>
  <outline>
    <contour>
      <point x="160" y="0" type="line"/>
      <point x="57" y="0" type="line"/>
      <point x="65" y="187" type="line"/>
      <point x="57" y="375" type="line"/>
      <point x="160" y="375" type="line"/>
      <point x="152" y="187" type="line"/>
    </contour>
  </outline>
</glyph>
<glyph name="Lslash" format="1">
  <advance width="454"/>
  <unicode hex="0141"/>
  <outline>
    <contour>
      <point x="430" y="0" type="line"/>
      <point x="79" y="0" type="line"/>
      <point x="86" y="238" type="line"/>
      <point x="24" y="218" type="line"/>
      <point x="6" y="267" type="line"/>
      <point x="87" y="307" type="line"/>
      <point x="79" y="595" type="line"/>
      <point x="181" y="595" type="line"/>
      <point x="175" y="343" type="line"/>
      <point x="295" y="383" type="line"/>
      <point x="312" y="334" type="line"/>
      <point x="175" y="271" type="line"/>
      <point x="179" y="54" type="line"/>
      <point x="414" y="78" type="line"/>
    </contour>
  </outline>
</glyph>
<glyph name="lslash" format="1">
  <advance width="272"/>
  <unicode hex="0142"/>
  <outline>
    <contour>
      <point x="267" y="316" type="line"/>
      <point x="180" y="274" type="line"/>
      <point x="187" y="0" type="line"/>
      <point x="85" y="0" type="line"/>
      <point x="91" y="243" type="line"/>
      <point x="23" y="222" type="line"/>
      <point x="5" y="271" type="line"/>
      <point x="93" y="313" type="line"/>
      <point x="94" y="354" type="line"/>
      <point x="85" y="750" type="line"/>
      <point x="187" y="750" type="line"/>
      <point x="178" y="371" type="line"/>
      <point x="179" y="344" type="line"/>
      <point x="248" y="365" type="line"/>
    </contour>
  </outline>
</glyph>
<glyph name="OE" format="1">
  <advance width="806"/>
  <unicode hex="0152"/>
  <outline>
    <contour>
      <point x="772" y="0" type="line"/>
      <point x="252" y="0" type="line"/>
      <point x="74" y="51" type="line"/>
      <point x="43" y="297" type="line"/>
      <point x="74" y="544" type="line"/>
      <point x="252" y="595" type="line"/>
      <point x="769" y="595" type="line"/>
      <point x="753" y="517" type="line"/>
      <point x="509" y="541" type="line"/>
      <point x="504" y="331" type="line"/>
      <point x="688" y="340" type="line"/>
      <point x="688" y="265" type="line"/>
      <point x="504" y="275" type="line"/>
      <point x="509" y="54" type="line"/>
      <point x="756" y="78" type="line"/>
    </contour>
    <contour>
      <point x="417" y="297" type="line"/>
      <point x="411" y="531" type="line"/>
      <point x="289" y="531" type="line"/>
      <point x="163" y="502" type="line"/>
      <point x="137" y="297" type="line"/>
      <point x="163" y="93" type="line"/>
      <point x="288" y="64" type="line"/>
      <point x="411" y="64" type="line"/>
    </contour>
  </outline>
</glyph>
<glyph name="oe" format="1">
  <advance width="628"/>
  <unicode hex="0153"/>
  <outline>
    <contour>
      <point x="592" y="203" type="line"/>
      <point x="380" y="149" type="line"/>
      <point x="386" y="56" type="line"/>
      <point x="456" y="43" type="line"/>
      <point x="574" y="71" type="line"/>
      <point x="588" y="11" type="line"/>
      <point x="497" y="-5" type="line"/>
      <point x="416" y="-5" type="line"/>
      <point x="333" y="16" type="line"/>
      <point x="251" y="-5" type="line"/>
      <point x="176" y="-5" type="line"/>
      <point x="58" y="20" type="line"/>
      <point x="43" y="188" type="line"/>
      <point x="58" y="355" type="line"/>
      <point x="176" y="380" type="line"/>
      <point x="251" y="380" type="line"/>
      <point x="333" y="359" type="line"/>
      <point x="416" y="380" type="line"/>
      <point x="474" y="380" type="line"/>
      <point x="579" y="356" type="line"/>
    </contour>
    <contour>
      <point x="500" y="226" type="line"/>
      <point x="493" y="321" type="line"/>
      <point x="442" y="332" type="line"/>
      <point x="385" y="319" type="line"/>
      <point x="378" y="195" type="line"/>
    </contour>
    <contour>
      <point x="293" y="188" type="line"/>
      <point x="284" y="318" type="line"/>
      <point x="214" y="331" type="line"/>
      <point x="146" y="318" type="line"/>
      <point x="134" y="188" type="line"/>
      <point x="146" y="58" type="line"/>
      <point x="213" y="44" type="line"/>
      <point x="284" y="58" type="line"/>
    </contour>
  </outline>
</glyph>
<glyph name="florin" format="1">
  <advance width="305"/>
  <unicode hex="0192"/>
  <outline>
    <contour>
      <point x="295" y="583" type="line"/>
      <point x="271" y="507" type="line"/>
      <point x="157" y="545" type="line"/>
      <point x="152" y="293" type="line"/>
      <point x="245" y="288" type="line"/>
      <point x="245" y="236" type="line"/>
      <point x="152" y="231" type="line"/>
      <point x="158" y="-140" type="line"/>
      <point x="59" y="-140" type="line"/>
      <point x="66" y="232" type="line"/>
      <point x="29" y="236" type="line"/>
      <point x="29" y="288" type="line"/>
      <point x="66" y="291" type="line"/>
      <point x="59" y="580" type="line"/>
      <point x="186" y="600" type="line"/>
    </contour>
  </outline>
</glyph>
<glyph name="circumflex" format="1">
  <advance width="438"/>
  <unicode hex="02C6"/>
  <outline>
    <contour>
      <point x="348" y="437" type="line"/>
      <point x="326" y="404" type="line"/>
      <point x="219" y="455" type="line"/>
      <point x="112" y="404" type="line"/>
      <point x="90" y="437" type="line"/>
      <point x="149" y="484" type="line"/>
      <point x="194" y="536" type="line"/>
      <point x="244" y="536" type="line"/>
      <point x="289" y="484" type="line"/>
    </contour>
  </outline>
</glyph>
<glyph name="caron" format="1">
  <advance width="438"/>
  <unicode hex="02C7"/>
  <outline>
    <contour>
      <point x="348" y="510" type="line"/>
      <point x="289" y="463" type="line"/>
      <point x="244" y="411" type="line"/>
      <point x="194" y="411" type="line"/>
      <point x="149" y="463" type="line"/>
      <point x="90" y="510" type="line"/>
      <point x="112" y="543" type="line"/>
      <point x="219" y="492" type="line"/>
      <point x="326" y="543" type="line"/>
    </contour>
  </outline>
</glyph>
<glyph name="breve" format="1">
  <advance width="438"/>
  <unicode hex="02D8"/>
  <outline>
    <contour>
      <point x="352" y="514" type="line"/>
      <point x="311" y="450" type="line"/>
      <point x="244" y="411" type="line"/>
      <point x="194" y="411" type="line"/>
      <point x="127" y="450" type="line"/>
      <point x="86" y="514" type="line"/>
      <point x="116" y="539" type="line"/>
      <point x="197" y="479" type="line"/>
      <point x="241" y="479" type="line"/>
      <point x="322" y="539" type="line"/>
    </contour>
  </outline>
</glyph>
<glyph name="dotaccent" format="1">
  <advance width="438"/>
  <unicode hex="02D9"/>
  <outline>
    <contour>
      <point x="270" y="464" type="line"/>
      <point x="267" y="417" type="line"/>
      <point x="171" y="417" type="line"/>
      <point x="168" y="464" type="line"/>
      <point x="171" y="511" type="line"/>
      <point x="267" y="511" type="line"/>
    </contour>
  </outline>
</glyph>
<glyph name="ring" format="1">
  <advance width="438"/>
  <unicode hex="02DA"/>
  <outline>
    <contour>
      <point x="320" y="491" type="line"/>
      <point x="308" y="426" type="line"/>
      <point x="246" y="408" type="line"/>
      <point x="192" y="408" type="line"/>
      <point x="130" y="425" type="line"/>
      <point x="118" y="490" type="line"/>
      <point x="130" y="555" type="line"/>
      <point x="192" y="572" type="line"/>
      <point x="246" y="572" type="line"/>
      <point x="308" y="555" type="line"/>
    </contour>
    <contour>
      <point x="262" y="490" type="line"/>
      <point x="254" y="529" type="line"/>
      <point x="219" y="536" type="line"/>
      <point x="184" y="529" type="line"/>
      <point x="176" y="491" type="line"/>
      <point x="184" y="452" type="line"/>
      <point x="219" y="444" type="line"/>
      <point x="254" y="452" type="line"/>
    </contour>
  </outline>
</glyph>
<glyph name="ogonek" format="1">
  <advance width="438"/>
  <unicode hex="02DB"/>
  <outline>
    <contour>
      <point x="308" y="-71" type="line"/>
      <point x="292" y="-102" type="line"/>
      <point x="191" y="-78" type="line"/>
      <point x="148" y="-35" type="line"/>
      <point x="205" y="28" type="line"/>
      <point x="253" y="-33" type="line"/>
    </contour>
  </outline>
</glyph>
<glyph name="tilde" format="1">
  <advance width="438"/>
  <unicode hex="02DC"/>
  <outline>
    <contour>
      <point x="369" y="508" type="line"/>
      <point x="316" y="459" type="line"/>
      <point x="278" y="411" type="line"/>
      <point x="229" y="411" type="line"/>
      <point x="170" y="460" type="line"/>
      <point x="98" y="407" type="line"/>
      <point x="69" y="434" type="line"/>
      <point x="122" y="483" type="line"/>
      <point x="160" y="532" type="line"/>
      <point x="209" y="532" type="line"/>
      <point x="268" y="483" type="line"/>
      <point x="340" y="536" type="line"/>
    </contour>
  </outline>
</glyph>
<glyph name="hungarumlaut" format="1">
  <advance width="438"/>
  <unicode hex="02DD"/>
  <outline>
    <contour>
      <point x="372" y="513" type="line"/>
      <point x="343" y="467" type="line"/>
      <point x="227" y="404" type="line"/>
      <point x="208" y="430" type="line"/>
      <point x="264" y="488" type="line"/>
      <point x="296" y="549" type="line"/>
    </contour>
    <contour>
      <point x="230" y="513" type="line"/>
      <point x="200" y="467" type="line"/>
      <point x="85" y="404" type="line"/>
      <point x="66" y="430" type="line"/>
      <point x="122" y="488" type="line"/>
      <point x="154" y="549" type="line"/>
    </contour>
  </outline>
</glyph>
<glyph name="endash" format="1">
  <advance width="447"/>
  <unicode hex="2013"/>
  <outline>
    <contour>
      <point x="410" y="193" type="line"/>
      <point x="223" y="183" type="line"/>
      <point x="37" y="193" type="line"/>
      <point x="37" y="261" type="line"/>
      <point x="223" y="271" type="line"/>
      <point x="410" y="261" type="line"/>
    </contour>
  </outline>
</glyph>
<glyph name="emdash" format="1">
  <advance width="607"/>
  <unicode hex="2014"/>
  <outline>
    <contour>
      <point x="570" y="193" type="line"/>
      <point x="303" y="181" type="line"/>
      <point x="37" y="193" type="line"/>
      <point x="37" y="261" type="line"/>
      <point x="303" y="273" type="line"/>
      <point x="570" y="261" type="line"/>
    </contour>
  </outline>
</glyph>
<glyph name="quoteleft" format="1">
  <advance width="195"/>
  <unicode hex="2018"/>
  <unicode hex="02BB"/>
  <outline>
    <contour>
      <point x="156" y="588" type="line"/>
      <point x="140" y="495" type="line"/>
      <point x="150" y="391" type="line"/>
      <point x="44" y="391" type="line"/>
      <point x="41" y="475" type="line"/>
      <point x="116" y="604" type="line"/>
    </contour>
  </outline>
</glyph>
<glyph name="quoteright" format="1">
  <advance width="195"/>
  <unicode hex="2019"/>
  <unicode hex="02BC"/>
  <outline>
    <contour>
      <point x="155" y="511" type="line"/>
      <point x="79" y="382" type="line"/>
      <point x="39" y="398" type="line"/>
      <point x="55" y="490" type="line"/>
      <point x="45" y="595" type="line"/>
      <point x="152" y="595" type="line"/>
    </contour>
  </outline>
</glyph>
<glyph name="quotesinglbase" format="1">
  <advance width="195"/>
  <unicode hex="201A"/>
  <outline>
    <contour>
      <point x="155" y="21" type="line"/>
      <point x="79" y="-108" type="line"/>
      <point x="39" y="-92" type="line"/>
      <point x="55" y="0" type="line"/>
      <point x="45" y="105" type="line"/>
      <point x="152" y="105" type="line"/>
    </contour>
  </outline>
</glyph>
<glyph name="quotedblleft" format="1">
  <advance width="375"/>
  <unicode hex="201C"/>
  <outline>
    <contour>
      <point x="336" y="588" type="line"/>
      <point x="320" y="495" type="line"/>
      <point x="330" y="391" type="line"/>
      <point x="223" y="391" type="line"/>
      <point x="220" y="475" type="line"/>
      <point x="296" y="604" type="line"/>
    </contour>
    <contour>
      <point x="156" y="588" type="line"/>
      <point x="140" y="495" type="line"/>
      <point x="150" y="391" type="line"/>
      <point x="44" y="391" type="line"/>
      <point x="41" y="475" type="line"/>
      <point x="116" y="604" type="line"/>
    </contour>
  </outline>
</glyph>
<glyph name="quotedblright" format="1">
  <advance width="375"/>
  <unicode hex="201D"/>
  <outline>
    <contour>
      <point x="334" y="511" type="line"/>
      <point x="259" y="382" type="line"/>
      <point x="218" y="398" type="line"/>
      <point x="234" y="490" type="line"/>
      <point x="225" y="595" type="line"/>
      <point x="331" y="595" type="line"/>
    </contour>
    <contour>
      <point x="155" y="511" type="line"/>
      <point x="79" y="382" type="line"/>
      <point x="39" y="398" type="line"/>
      <point x="55" y="490" type="line"/>
      <point x="45" y="595" type="line"/>
      <point x="152" y="595" type="line"/>
    </contour>
  </outline>
</glyph>
<glyph name="quotedblbase" format="1">
  <advance width="375"/>
  <unicode hex="201E"/>
  <outline>
    <contour>
      <point x="334" y="21" type="line"/>
      <point x="259" y="-108" type="line"/>
      <point x="218" y="-92" type="line"/>
      <point x="234" y="0" type="line"/>
      <point x="225" y="105" type="line"/>
      <point x="331" y="105" type="line"/>
    </contour>
    <contour>
      <point x="155" y="21" type="line"/>
      <point x="79" y="-108" type="line"/>
      <point x="39" y="-92" type="line"/>
      <point x="55" y="0" type="line"/>
      <point x="45" y="105" type="line"/>
      <point x="152" y="105" type="line"/>
    </contour>
  </outline>
</glyph>
<glyph name="dagger" format="1">
  <advance width="468"/>
  <unicode hex="2020"/>
  <outline>
    <contour>
      <point x="442" y="367" type="line"/>
      <point x="275" y="372" type="line"/>
      <point x="283" y="0" type="line"/>
      <point x="185" y="0" type="line"/>
      <point x="192" y="372" type="line"/>
      <point x="26" y="367" type="line"/>
      <point x="26" y="440" type="line"/>
      <point x="191" y="435" type="line"/>
      <point x="185" y="595" type="line"/>
      <point x="283" y="595" type="line"/>
      <point x="276" y="435" type="line"/>
      <point x="442" y="440" type="line"/>
    </contour>
  </outline>
</glyph>
<glyph name="daggerdbl" format="1">
  <advance width="468"/>
  <unicode hex="2021"/>
  <outline>
    <contour>
      <point x="440" y="156" type="line"/>
      <point x="278" y="161" type="line"/>
      <point x="283" y="0" type="line"/>
      <point x="185" y="0" type="line"/>
      <point x="190" y="161" type="line"/>
      <point x="28" y="156" type="line"/>
      <point x="28" y="227" type="line"/>
      <point x="192" y="221" type="line"/>
      <point x="194" y="297" type="line"/>
      <point x="192" y="374" type="line"/>
      <point x="28" y="369" type="line"/>
      <point x="28" y="440" type="line"/>
      <point x="189" y="435" type="line"/>
      <point x="185" y="595" type="line"/>
      <point x="283" y="595" type="line"/>
      <point x="278" y="435" type="line"/>
      <point x="440" y="440" type="line"/>
      <point x="440" y="369" type="line"/>
      <point x="276" y="374" type="line"/>
      <point x="274" y="297" type="line"/>
      <point x="276" y="222" type="line"/>
      <point x="440" y="227" type="line"/>
    </contour>
  </outline>
</glyph>
<glyph name="ellipsis" format="1">
  <advance width="596"/>
  <unicode hex="2026"/>
  <outline>
    <contour>
      <point x="555" y="52" type="line"/>
      <point x="552" y="0" type="line"/>
      <point x="446" y="0" type="line"/>
      <point x="443" y="52" type="line"/>
      <point x="446" y="105" type="line"/>
      <point x="552" y="105" type="line"/>
    </contour>
    <contour>
      <point x="354" y="52" type="line"/>
      <point x="351" y="0" type="line"/>
      <point x="245" y="0" type="line"/>
      <point x="242" y="52" type="line"/>
      <point x="245" y="105" type="line"/>
      <point x="351" y="105" type="line"/>
    </contour>
    <contour>
      <point x="153" y="52" type="line"/>
      <point x="151" y="0" type="line"/>
      <point x="45" y="0" type="line"/>
      <point x="42" y="52" type="line"/>
      <point x="45" y="105" type="line"/>
      <point x="151" y="105" type="line"/>
    </contour>
  </outline>
</glyph>
<glyph name="perthousand" format="1">
  <advance width="1359"/>
  <unicode hex="2030"/>
  <outline>
    <contour>
      <point x="394" y="419" type="line"/>
      <point x="373" y="268" type="line"/>
      <point x="254" y="237" type="line"/>
      <point x="174" y="237" type="line"/>
      <point x="55" y="267" type="line"/>
      <point x="34" y="418" type="line"/>
      <point x="55" y="569" type="line"/>
      <point x="174" y="600" type="line"/>
      <point x="254" y="600" type="line"/>
      <point x="373" y="570" type="line"/>
    </contour>
    <contour>
      <point x="657" y="586" type="line"/>
      <point x="480" y="206" type="line"/>
      <point x="348" y="-9" type="line"/>
      <point x="297" y="9" type="line"/>
      <point x="473" y="389" type="line"/>
      <point x="606" y="604" type="line"/>
    </contour>
    <contour>
      <point x="1325" y="177" type="line"/>
      <point x="1304" y="26" type="line"/>
      <point x="1185" y="-5" type="line"/>
      <point x="1105" y="-5" type="line"/>
      <point x="986" y="25" type="line"/>
      <point x="965" y="176" type="line"/>
      <point x="986" y="327" type="line"/>
      <point x="1105" y="358" type="line"/>
      <point x="1185" y="358" type="line"/>
      <point x="1304" y="328" type="line"/>
    </contour>
    <contour>
      <point x="919" y="177" type="line"/>
      <point x="898" y="26" type="line"/>
      <point x="780" y="-5" type="line"/>
      <point x="700" y="-5" type="line"/>
      <point x="581" y="25" type="line"/>
      <point x="560" y="176" type="line"/>
      <point x="581" y="327" type="line"/>
      <point x="700" y="358" type="line"/>
      <point x="780" y="358" type="line"/>
      <point x="898" y="328" type="line"/>
    </contour>
    <contour>
      <point x="309" y="418" type="line"/>
      <point x="294" y="529" type="line"/>
      <point x="214" y="547" type="line"/>
      <point x="134" y="529" type="line"/>
      <point x="118" y="419" type="line"/>
      <point x="134" y="308" type="line"/>
      <point x="214" y="290" type="line"/>
      <point x="294" y="308" type="line"/>
    </contour>
    <contour>
      <point x="1240" y="176" type="line"/>
      <point x="1225" y="287" type="line"/>
      <point x="1145" y="305" type="line"/>
      <point x="1065" y="287" type="line"/>
      <point x="1049" y="177" type="line"/>
      <point x="1065" y="66" type="line"/>
      <point x="1145" y="48" type="line"/>
      <point x="1225" y="66" type="line"/>
    </contour>
    <contour>
      <point x="835" y="176" type="line"/>
      <point x="820" y="287" type="line"/>
      <point x="740" y="305" type="line"/>
      <point x="660" y="287" type="line"/>
      <point x="644" y="177" type="line"/>
      <point x="660" y="66" type="line"/>
      <point x="740" y="48" type="line"/>
      <point x="820" y="66" type="line"/>
    </contour>
  </outline>
</glyph>
<glyph name="guilsinglleft" format="1">
  <advance width="276"/>
  <unicode hex="2039"/>
  <outline>
    <contour>
      <point x="246" y="54" type="line"/>
      <point x="207" y="24" type="line"/>
      <point x="94" y="123" type="line"/>
      <point x="29" y="165" type="line"/>
      <point x="29" y="215" type="line"/>
      <point x="94" y="257" type="line"/>
      <point x="207" y="356" type="line"/>
      <point x="246" y="326" type="line"/>
      <point x="140" y="190" type="line"/>
    </contour>
  </outline>
</glyph>
<glyph name="guilsinglright" format="1">
  <advance width="276"/>
  <unicode hex="203A"/>
  <outline>
    <contour>
      <point x="247" y="165" type="line"/>
      <point x="182" y="123" type="line"/>
      <point x="69" y="24" type="line"/>
      <point x="30" y="54" type="line"/>
      <point x="136" y="190" type="line"/>
      <point x="30" y="326" type="line"/>
      <point x="69" y="356" type="line"/>
      <point x="182" y="257" type="line"/>
      <point x="247" y="215" type="line"/>
    </contour>
  </outline>
</glyph>
<glyph name="fraction" format="1">
  <advance width="429"/>
  <unicode hex="2044"/>
  <outline>
    <contour>
      <point x="426" y="583" type="line"/>
      <point x="226" y="213" type="line"/>
      <point x="58" y="-10" type="line"/>
      <point x="3" y="12" type="line"/>
      <point x="203" y="382" type="line"/>
      <point x="371" y="605" type="line"/>
    </contour>
  </outline>
</glyph>
<glyph name="Euro" format="1">
  <advance width="557"/>
  <unicode hex="20AC"/>
  <outline>
    <contour>
      <point x="19" y="208" type="line"/>
      <point x="19" y="256" type="line"/>
      <point x="94" y="259" type="line"/>
      <point x="90" y="297" type="line"/>
      <point x="94" y="335" type="line"/>
      <point x="19" y="338" type="line"/>
      <point x="19" y="386" type="line"/>
      <point x="101" y="390" type="line"/>
      <point x="121" y="549" type="line"/>
      <point x="287" y="600" type="line"/>
      <point x="377" y="600" type="line"/>
      <point x="521" y="570" type="line"/>
      <point x="499" y="492" type="line"/>
      <point x="336" y="545" type="line"/>
      <point x="211" y="512" type="line"/>
      <point x="196" y="391" type="line"/>
      <point x="368" y="386" type="line"/>
      <point x="368" y="338" type="line"/>
      <point x="190" y="332" type="line"/>
      <point x="185" y="297" type="line"/>
      <point x="190" y="261" type="line"/>
      <point x="368" y="256" type="line"/>
      <point x="368" y="208" type="line"/>
      <point x="196" y="203" type="line"/>
      <point x="211" y="83" type="line"/>
      <point x="335" y="49" type="line"/>
      <point x="498" y="106" type="line"/>
      <point x="516" y="42" type="line"/>
      <point x="371" y="-5" type="line"/>
      <point x="287" y="-5" type="line"/>
      <point x="121" y="46" type="line"/>
      <point x="101" y="204" type="line"/>
    </contour>
  </outline>
</glyph>
<glyph name="uni2117" format="1">
  <advance width="709"/>
  <unicode hex="2117"/>
  <outline>
    <contour>
      <point x="668" y="297" type="line"/>
      <point x="633" y="46" type="line"/>
      <point x="423" y="-5" type="line"/>
      <point x="286" y="-5" type="line"/>
      <point x="76" y="46" type="line"/>
      <point x="41" y="297" type="line"/>
      <point x="76" y="549" type="line"/>
      <point x="286" y="600" type="line"/>
      <point x="423" y="600" type="line"/>
      <point x="633" y="549" type="line"/>
    </contour>
    <contour>
      <point x="629" y="297" type="line"/>
      <point x="599" y="523" type="line"/>
      <point x="418" y="566" type="line"/>
      <point x="291" y="566" type="line"/>
      <point x="111" y="523" type="line"/>
      <point x="80" y="297" type="line"/>
      <point x="111" y="73" type="line"/>
      <point x="291" y="29" type="line"/>
      <point x="418" y="29" type="line"/>
      <point x="599" y="73" type="line"/>
    </contour>
    <contour>
      <point x="515" y="369" type="line"/>
      <point x="502" y="281" type="line"/>
      <point x="389" y="247" type="line"/>
      <point x="293" y="247" type="line"/>
      <point x="298" y="105" type="line"/>
      <point x="216" y="105" type="line"/>
      <point x="222" y="299" type="line"/>
      <point x="216" y="494" type="line"/>
      <point x="389" y="494" type="line"/>
      <point x="502" y="460" type="line"/>
    </contour>
    <contour>
      <point x="439" y="369" type="line"/>
      <point x="431" y="428" type="line"/>
      <point x="366" y="447" type="line"/>
      <point x="296" y="447" type="line"/>
      <point x="292" y="293" type="line"/>
      <point x="366" y="293" type="line"/>
      <point x="431" y="312" type="line"/>
    </contour>
  </outline>
</glyph>
<glyph name="trademark" format="1">
  <advance width="830"/>
  <unicode hex="2122"/>
  <outline>
    <contour>
      <point x="772" y="207" type="line"/>
      <point x="698" y="207" type="line"/>
      <point x="704" y="489" type="line"/>
      <point x="597" y="207" type="line"/>
      <point x="551" y="207" type="line"/>
      <point x="432" y="490" type="line"/>
      <point x="441" y="207" type="line"/>
      <point x="385" y="207" type="line"/>
      <point x="390" y="400" type="line"/>
      <point x="385" y="595" type="line"/>
      <point x="463" y="595" type="line"/>
      <point x="522" y="441" type="line"/>
      <point x="586" y="293" type="line"/>
      <point x="639" y="432" type="line"/>
      <point x="694" y="595" type="line"/>
      <point x="772" y="595" type="line"/>
      <point x="766" y="400" type="line"/>
    </contour>
    <contour>
      <point x="333" y="595" type="line"/>
      <point x="323" y="541" type="line"/>
      <point x="214" y="555" type="line"/>
      <point x="211" y="401" type="line"/>
      <point x="216" y="207" type="line"/>
      <point x="140" y="207" type="line"/>
      <point x="146" y="401" type="line"/>
      <point x="141" y="555" type="line"/>
      <point x="33" y="541" type="line"/>
      <point x="23" y="595" type="line"/>
    </contour>
  </outline>
</glyph>
<glyph name="radical" format="1">
  <advance width="510"/>
  <unicode hex="221A"/>
  <outline>
    <contour>
      <point x="488" y="580" type="line"/>
      <point x="371" y="272" type="line"/>
      <point x="277" y="-2" type="line"/>
      <point x="179" y="-2" type="line"/>
      <point x="103" y="144" type="line"/>
      <point x="16" y="269" type="line"/>
      <point x="109" y="320" type="line"/>
      <point x="236" y="81" type="line"/>
      <point x="341" y="375" type="line"/>
      <point x="406" y="604" type="line"/>
    </contour>
  </outline>
</glyph>
<glyph name="apple" format="1">
  <advance width="652"/>
  <unicode hex="F8FF"/>
  <outline>
    <contour>
      <point x="628" y="258" type="line"/>
      <point x="367" y="269" type="line"/>
      <point x="372" y="174" type="line"/>
      <point x="513" y="183" type="line"/>
      <point x="513" y="112" type="line"/>
      <point x="376" y="121" type="line"/>
      <point x="383" y="0" type="line"/>
      <point x="269" y="0" type="line"/>
      <point x="276" y="121" type="line"/>
      <point x="139" y="112" type="line"/>
      <point x="139" y="183" type="line"/>
      <point x="279" y="174" type="line"/>
      <point x="284" y="269" type="line"/>
      <point x="24" y="258" type="line"/>
      <point x="24" y="337" type="line"/>
      <point x="284" y="327" type="line"/>
      <point x="279" y="421" type="line"/>
      <point x="139" y="412" type="line"/>
      <point x="139" y="483" type="line"/>
      <point x="276" y="474" type="line"/>
      <point x="269" y="595" type="line"/>
      <point x="383" y="595" type="line"/>
      <point x="376" y="474" type="line"/>
      <point x="513" y="483" type="line"/>
      <point x="513" y="412" type="line"/>
      <point x="372" y="421" type="line"/>
      <point x="367" y="327" type="line"/>
      <point x="628" y="337" type="line"/>
    </contour>
  </outline>
</glyph>
<glyph name="f_f" format="1">
  <advance width="450"/>
  <unicode hex="FB00"/>
  <outline>
    <contour>
      <point x="461" y="682" type="line"/>
      <point x="369" y="695" type="line"/>
      <point x="363" y="380" type="line"/>
      <point x="435" y="374" type="line"/>
      <point x="435" y="326" type="line"/>
      <point x="363" y="321" type="line"/>
      <point x="370" y="0" type="line"/>
      <point x="271" y="0" type="line"/>
      <point x="278" y="321" type="line"/>
      <point x="213" y="324" type="line"/>
      <point x="150" y="321" type="line"/>
      <point x="156" y="0" type="line"/>
      <point x="57" y="0" type="line"/>
      <point x="64" y="322" type="line"/>
      <point x="32" y="326" type="line"/>
      <point x="32" y="374" type="line"/>
      <point x="64" y="378" type="line"/>
      <point x="57" y="730" type="line"/>
      <point x="187" y="750" type="line"/>
      <point x="281" y="733" type="line"/>
      <point x="379" y="750" type="line"/>
      <point x="461" y="744" type="line"/>
    </contour>
    <contour>
      <point x="278" y="379" type="line"/>
      <point x="272" y="678" type="line"/>
      <point x="206" y="692" type="line"/>
      <point x="155" y="684" type="line"/>
      <point x="149" y="379" type="line"/>
      <point x="213" y="376" type="line"/>
    </contour>
  </outline>
</glyph>
<glyph name="f_f_i" format="1">
  <advance width="636"/>
  <unicode hex="FB03"/>
  <outline>
    <contour>
      <point x="581" y="0" type="line"/>
      <point x="478" y="0" type="line"/>
      <point x="486" y="187" type="line"/>
      <point x="480" y="323" type="line"/>
      <point x="363" y="319" type="line"/>
      <point x="370" y="0" type="line"/>
      <point x="271" y="0" type="line"/>
      <point x="278" y="321" type="line"/>
      <point x="213" y="324" type="line"/>
      <point x="150" y="321" type="line"/>
      <point x="156" y="0" type="line"/>
      <point x="57" y="0" type="line"/>
      <point x="64" y="322" type="line"/>
      <point x="32" y="326" type="line"/>
      <point x="32" y="374" type="line"/>
      <point x="64" y="378" type="line"/>
      <point x="57" y="730" type="line"/>
      <point x="187" y="750" type="line"/>
      <point x="284" y="732" type="line"/>
      <point x="413" y="750" type="line"/>
      <point x="575" y="728" type="line"/>
      <point x="542" y="643" type="line"/>
      <point x="426" y="695" type="line"/>
      <point x="369" y="687" type="line"/>
      <point x="363" y="381" type="line"/>
      <point x="581" y="375" type="line"/>
      <point x="573" y="187" type="line"/>
    </contour>
    <contour>
      <point x="278" y="379" type="line"/>
      <point x="272" y="678" type="line"/>
      <point x="206" y="692" type="line"/>
      <point x="155" y="684" type="line"/>
      <point x="149" y="379" type="line"/>
      <point x="213" y="376" type="line"/>
    </contour>
  </outline>
</glyph>
<glyph name="f_f_l" format="1">
  <advance width="647"/>
  <unicode hex="FB04"/>
  <outline>
    <contour>
      <point x="592" y="0" type="line"/>
      <point x="491" y="0" type="line"/>
      <point x="499" y="354" type="line"/>
      <point x="492" y="676" type="line"/>
      <point x="420" y="692" type="line"/>
      <point x="369" y="684" type="line"/>
      <point x="363" y="380" type="line"/>
      <point x="435" y="374" type="line"/>
      <point x="435" y="326" type="line"/>
      <point x="363" y="320" type="line"/>
      <point x="370" y="0" type="line"/>
      <point x="271" y="0" type="line"/>
      <point x="278" y="321" type="line"/>
      <point x="213" y="324" type="line"/>
      <point x="150" y="321" type="line"/>
      <point x="156" y="0" type="line"/>
      <point x="57" y="0" type="line"/>
      <point x="64" y="322" type="line"/>
      <point x="32" y="326" type="line"/>
      <point x="32" y="374" type="line"/>
      <point x="64" y="378" type="line"/>
      <point x="57" y="730" type="line"/>
      <point x="187" y="750" type="line"/>
      <point x="284" y="732" type="line"/>
      <point x="401" y="750" type="line"/>
      <point x="491" y="733" type="line"/>
      <point x="491" y="750" type="line"/>
      <point x="592" y="750" type="line"/>
      <point x="583" y="354" type="line"/>
    </contour>
    <contour>
      <point x="278" y="379" type="line"/>
      <point x="272" y="678" type="line"/>
      <point x="206" y="692" type="line"/>
      <point x="155" y="684" type="line"/>
      <point x="149" y="379" type="line"/>
      <point x="213" y="376" type="line"/>
    </contour>
  </outline>
</glyph>
<glyph name="bullet" format="1">
  <advance width="314"/>
  <outline>
    <contour>
      <point x="256" y="227" type="line"/>
      <point x="251" y="133" type="line"/>
      <point x="157" y="127" type="line"/>
      <point x="63" y="133" type="line"/>
      <point x="57" y="227" type="line"/>
      <point x="63" y="320" type="line"/>
      <point x="157" y="326" type="line"/>
      <point x="251" y="320" type="line"/>
    </contour>
  </outline>
</glyph>
<glyph name="f_i" format="1">
  <advance width="422"/>
  <outline>
    <contour>
      <point x="367" y="0" type="line"/>
      <point x="264" y="0" type="line"/>
      <point x="272" y="187" type="line"/>
      <point x="267" y="323" type="line"/>
      <point x="150" y="319" type="line"/>
      <point x="156" y="0" type="line"/>
      <point x="57" y="0" type="line"/>
      <point x="64" y="322" type="line"/>
      <point x="32" y="326" type="line"/>
      <point x="32" y="374" type="line"/>
      <point x="64" y="378" type="line"/>
      <point x="57" y="730" type="line"/>
      <point x="199" y="750" type="line"/>
      <point x="361" y="728" type="line"/>
      <point x="328" y="643" type="line"/>
      <point x="212" y="695" type="line"/>
      <point x="155" y="687" type="line"/>
      <point x="149" y="381" type="line"/>
      <point x="367" y="375" type="line"/>
      <point x="359" y="187" type="line"/>
    </contour>
  </outline>
</glyph>
<glyph name="f_l" format="1">
  <advance width="433"/>
  <outline>
    <contour>
      <point x="378" y="0" type="line"/>
      <point x="277" y="0" type="line"/>
      <point x="285" y="354" type="line"/>
      <point x="278" y="676" type="line"/>
      <point x="206" y="692" type="line"/>
      <point x="155" y="684" type="line"/>
      <point x="149" y="380" type="line"/>
      <point x="221" y="374" type="line"/>
      <point x="221" y="326" type="line"/>
      <point x="150" y="320" type="line"/>
      <point x="156" y="0" type="line"/>
      <point x="57" y="0" type="line"/>
      <point x="64" y="322" type="line"/>
      <point x="32" y="326" type="line"/>
      <point x="32" y="374" type="line"/>
      <point x="64" y="378" type="line"/>
      <point x="57" y="730" type="line"/>
      <point x="187" y="750" type="line"/>
      <point x="277" y="733" type="line"/>
      <point x="277" y="750" type="line"/>
      <point x="378" y="750" type="line"/>
      <point x="370" y="354" type="line"/>
    </contour>
  </outline>
</glyph>
<glyph name="g.salt" format="1">
  <advance width="432"/>
  <outline>
    <contour>
      <point x="380" y="375" type="line"/>
      <point x="373" y="117" type="line"/>
      <point x="379" y="-106" type="line"/>
      <point x="254" y="-140" type="line"/>
      <point x="141" y="-140" type="line"/>
      <point x="37" y="-125" type="line"/>
      <point x="50" y="-58" type="line"/>
      <point x="184" y="-91" type="line"/>
      <point x="281" y="-77" type="line"/>
      <point x="284" y="32" type="line"/>
      <point x="175" y="-5" type="line"/>
      <point x="59" y="13" type="line"/>
      <point x="44" y="188" type="line"/>
      <point x="59" y="362" type="line"/>
      <point x="174" y="380" type="line"/>
      <point x="281" y="344" type="line"/>
      <point x="280" y="375" type="line"/>
    </contour>
    <contour>
      <point x="287" y="118" type="line"/>
      <point x="283" y="296" type="line"/>
      <point x="200" y="319" type="line"/>
      <point x="146" y="310" type="line"/>
      <point x="135" y="188" type="line"/>
      <point x="146" y="65" type="line"/>
      <point x="200" y="56" type="line"/>
      <point x="286" y="79" type="line"/>
    </contour>
  </outline>
</glyph>
<glyph name="macron" format="1">
  <advance width="438"/>
  <outline>
    <contour>
      <point x="345" y="428" type="line"/>
      <point x="219" y="421" type="line"/>
      <point x="93" y="428" type="line"/>
      <point x="93" y="479" type="line"/>
      <point x="219" y="486" type="line"/>
      <point x="345" y="479" type="line"/>
    </contour>
  </outline>
</glyph>
<glyph name="registered" format="1">
  <advance width="709"/>
  <outline>
    <contour>
      <point x="668" y="297" type="line"/>
      <point x="633" y="46" type="line"/>
      <point x="423" y="-5" type="line"/>
      <point x="286" y="-5" type="line"/>
      <point x="76" y="46" type="line"/>
      <point x="41" y="297" type="line"/>
      <point x="76" y="549" type="line"/>
      <point x="286" y="600" type="line"/>
      <point x="423" y="600" type="line"/>
      <point x="633" y="549" type="line"/>
    </contour>
    <contour>
      <point x="629" y="297" type="line"/>
      <point x="599" y="523" type="line"/>
      <point x="418" y="566" type="line"/>
      <point x="291" y="566" type="line"/>
      <point x="111" y="523" type="line"/>
      <point x="80" y="297" type="line"/>
      <point x="111" y="73" type="line"/>
      <point x="291" y="29" type="line"/>
      <point x="418" y="29" type="line"/>
      <point x="599" y="73" type="line"/>
    </contour>
    <contour>
      <point x="529" y="141" type="line"/>
      <point x="467" y="99" type="line"/>
      <point x="312" y="264" type="line"/>
      <point x="285" y="264" type="line"/>
      <point x="289" y="109" type="line"/>
      <point x="208" y="109" type="line"/>
      <point x="214" y="302" type="line"/>
      <point x="208" y="497" type="line"/>
      <point x="381" y="497" type="line"/>
      <point x="493" y="465" type="line"/>
      <point x="506" y="380" type="line"/>
      <point x="493" y="296" type="line"/>
      <point x="396" y="269" type="line"/>
    </contour>
    <contour>
      <point x="431" y="380" type="line"/>
      <point x="423" y="434" type="line"/>
      <point x="357" y="450" type="line"/>
      <point x="287" y="450" type="line"/>
      <point x="283" y="310" type="line"/>
      <point x="357" y="310" type="line"/>
      <point x="423" y="327" type="line"/>
    </contour>
  </outline>
</glyph>
